<svg t="1640346493475" class="icon" viewBox="0 0 1024 1024" version="1.1" xmlns="http://www.w3.org/2000/svg" p-id="1920" data-spm-anchor-id="a313x.7781069.0.i3" width="256" height="256"><path d="M213.504 240.298667a42.666667 42.666667 0 0 1 58.197333 15.872l85.333334 149.333333a42.666667 42.666667 0 1 1-74.069334 42.325333l-85.333333-149.333333a42.666667 42.666667 0 0 1 15.872-58.197333zM810.496 240.298667a42.666667 42.666667 0 0 0-58.197333 15.872l-85.333334 149.333333a42.666667 42.666667 0 1 0 74.069334 42.325333l85.333333-149.333333a42.666667 42.666667 0 0 0-15.872-58.197333z" fill="#3ddc84" p-id="1921" data-spm-anchor-id="a313x.7781069.0.i4" class=""></path><path d="M512 341.333333c-221.269333 0-403.2 168.405333-424.533333 384.042667-2.346667 23.466667 16.981333 42.624 40.533333 42.624h768c23.552 0 42.88-19.157333 40.533333-42.624C915.2 509.738667 733.312 341.333333 512 341.333333z" fill="#3ddc84" p-id="1922" data-spm-anchor-id="a313x.7781069.0.i0" class=""></path><path d="M341.333333 640a42.666667 42.666667 0 1 1 0-85.333333 42.666667 42.666667 0 0 1 0 85.333333zM682.666667 640a42.666667 42.666667 0 1 1 0-85.333333 42.666667 42.666667 0 0 1 0 85.333333z" fill="#ffffff" p-id="1923" data-spm-anchor-id="a313x.7781069.0.i2" class=""></path></svg>