<svg xmlns="http://www.w3.org/2000/svg" width="56" height="32" fill="none"><g clip-path="url(#a)"><mask id="b" width="55" height="32" x="0" y="0" maskUnits="userSpaceOnUse" style="mask-type:alpha"><path fill="#34A853" d="M54.31 28.392a27.433 27.433 0 0 0-2.327-6.17 27.604 27.604 0 0 0-6.474-8.167 27.67 27.67 0 0 0-3.433-2.526l.03-.054c.555-.957 1.11-1.912 1.664-2.87l1.627-2.802c.39-.67.779-1.342 1.167-2.013A2.527 2.527 0 0 0 44.596.01a2.562 2.562 0 0 0-.864.075 2.522 2.522 0 0 0-1.535 1.173c-.39.67-.78 1.342-1.168 2.013l-1.626 2.802c-.554.957-1.11 1.913-1.663 2.87l-.183.314c-.084-.033-.167-.067-.251-.099a27.562 27.562 0 0 0-9.836-1.801l-.284.001a27.574 27.574 0 0 0-9.752 1.88c-.056-.099-.114-.196-.17-.294-.554-.957-1.11-1.913-1.663-2.87a38243.671 38243.671 0 0 1-2.794-4.815A2.522 2.522 0 0 0 9.333.356a2.515 2.515 0 0 0-1.149 1.52 2.528 2.528 0 0 0 .256 1.916c.39.67.78 1.342 1.167 2.012l1.626 2.803 1.664 2.87c.004.008.01.016.013.024a27.744 27.744 0 0 0-9.953 10.725A27.487 27.487 0 0 0 .259 30.16c-.17.966.597 1.819 1.578 1.819h51.261c.981 0 1.75-.853 1.58-1.82a26.666 26.666 0 0 0-.369-1.768Z"/></mask><g mask="url(#b)"><path fill="#4FAF53" d="M55.238-1.013H-3.403V31.98h58.64V-1.013Z"/><g filter="url(#c)" opacity=".8"><path fill="url(#d)" fill-opacity=".4" d="M29.48 9.575c5.811 4.1-10.547 4.55-16.867 13.509-6.319 8.96-1.253 24.52-7.065 20.42-3.589-4.92-4.135-14.904 2.184-23.863 6.32-8.96 16.817-11.903 21.747-10.066Z"/></g><g filter="url(#e)" opacity=".7"><path fill="url(#f)" fill-opacity=".4" d="M25.49 9.575c-5.812 4.1 10.547 4.55 16.866 13.509 6.32 8.96 1.254 24.52 7.066 20.42 3.588-4.92 4.135-14.904-2.185-23.863C40.918 10.681 30.42 7.738 25.49 9.575Z"/></g><g filter="url(#g)" opacity=".6"><path fill="#8BD8A0" d="M-.74 24.235c-2.232 7.023-3.382 12.927-2.567 13.186.814.258 3.285-5.225 5.517-12.248 2.233-7.023 11.442-14.681 10.627-14.94-.814-.26-11.344 6.979-13.576 14.002Z"/></g><g filter="url(#h)" opacity=".5"><path fill="#8BD8A0" d="M55.354 24.235c2.233 7.023 3.383 12.927 2.568 13.186-.814.258-3.284-5.225-5.517-12.248-2.233-7.023-11.442-14.681-10.627-14.94.814-.26 11.344 6.979 13.576 14.002Z"/></g><g filter="url(#i)" opacity=".7"><path fill="#0D652D" d="M10.447 5.505c2.211 3.63 3.179 5.362 2.858 5.557-.321.196-1.81-1.218-4.02-4.85-3.34-2.935.192-6.91.513-7.106.322-.195-2.636 1.588.65 6.399Z"/></g><g filter="url(#j)" opacity=".1"><path fill="#202124" d="M12.873 11.451c.265-.173-1.132-2.776-3.118-5.815C7.768 2.598 5.943.274 5.679.447 5.415.62 6.811 3.223 8.798 6.262c1.986 3.039 3.811 5.362 4.075 5.19Z"/></g><g filter="url(#k)" opacity=".3"><path fill="#fff" d="M13.205 3.657c2.313 3.799 3.44 5.54 3.698 5.383.257-.157-.455-2.15-2.768-5.95-2.23-5.073-6.252-2.047-5.855-1.492.773 1.487 1.968-3.266 4.925 2.059Z"/></g><path fill="url(#l)" fill-opacity=".9" d="M5.607 2.343c.418 1.442 2.131 2.213 3.827 1.722 1.697-.491 2.733-2.058 2.316-3.5-.417-1.441-2.13-2.212-3.827-1.72C6.227-.666 5.19.901 5.607 2.342Z" opacity=".15"/><path fill="url(#m)" fill-opacity=".9" d="M40.683 1.925c.417 1.442 2.13 2.213 3.827 1.722 1.696-.491 2.733-2.058 2.316-3.5-.417-1.441-2.13-2.212-3.827-1.72-1.696.49-2.733 2.057-2.316 3.498Z" opacity=".15"/><g filter="url(#n)" opacity=".1"><path fill="#202124" d="M41.907 11.643c-.266-.168 1.088-2.794 3.025-5.864 1.937-3.07 3.724-5.423 3.99-5.255.268.169-1.086 2.794-3.023 5.865-1.938 3.07-3.725 5.423-3.992 5.254Z"/></g><mask id="o" width="11" height="7" x="36" y="5" maskUnits="userSpaceOnUse" style="mask-type:alpha"><path fill="#000" d="M42.33 11.692c-1.3-.811-4.272-2.204-5.595-2.8l.874-3.093 8.543 3.437c-.732 1.157-2.52 3.268-3.822 2.456Z"/></mask><g mask="url(#o)"><g filter="url(#p)" opacity=".3" style="mix-blend-mode:multiply"><path fill="#0D652D" d="M43.195 11.224c-2.327-.983-4.314-1.546-4.437-1.255-.122.291 1.643 1.109 3.97 2.093 2.328.984 4.336 1.761 4.459 1.47.123-.29-1.665-1.323-3.992-2.308Z"/></g><g filter="url(#q)" opacity=".3" style="mix-blend-mode:screen"><path fill="#81C995" d="M38.433 9.368c-.649-.318-1.225-.474-1.287-.347-.062.126.424.398 1.072.716.648.319 1.214.564 1.276.437.062-.126-.413-.487-1.061-.806Z"/></g></g><mask id="r" width="10" height="8" x="8" y="5" maskUnits="userSpaceOnUse" style="mask-type:alpha"><path fill="#000" d="M12.305 11.947c1.284-.838 4.226-2.293 5.537-2.915l-.938-3.075-8.47 3.613c.755 1.141 2.587 3.215 3.871 2.377Z"/></mask><g mask="url(#r)"><g filter="url(#s)" opacity=".3" style="mix-blend-mode:multiply"><path fill="#0D652D" d="M11.431 11.497c2.307-1.032 4.281-1.635 4.41-1.347.129.288-1.62 1.142-3.926 2.174-2.306 1.031-4.298 1.85-4.427 1.562-.129-.288 1.637-1.358 3.943-2.39Z"/></g><g filter="url(#t)" opacity=".3" style="mix-blend-mode:screen"><path fill="#81C995" d="M16.154 9.542c.642-.332 1.215-.5 1.28-.374.065.125-.416.407-1.057.739-.642.332-1.202.588-1.267.463-.065-.125.403-.496 1.044-.828Z"/></g></g><g filter="url(#u)" opacity=".7"><path fill="#0D652D" d="M44.619 5.658c-2.126 3.682-3.053 5.435-2.728 5.623.326.188 1.78-1.26 3.907-4.942 3.27-3.012-.354-6.904-.68-7.092-.325-.188 2.673 1.525-.5 6.411Z"/></g><g filter="url(#v)" opacity=".3"><path fill="#fff" d="M41.702 3.861c-2.163 3.747-3.224 5.463-3.498 5.305-.273-.158.345-2.13 2.508-5.876 2.466-6.51 7.353-5.65 6.552-2.092-.632 1.463-2.823-2.592-5.562 2.663Z"/></g></g><path fill="url(#w)" fill-opacity=".7" d="M15.116 20.86c.686.61 1.514.8 1.85.424.335-.377.051-1.178-.635-1.789-.685-.611-1.514-.802-1.85-.425-.335.377-.051 1.178.635 1.79Z"/><path fill="url(#x)" fill-opacity=".7" d="M39.76 20.892c-.686.611-1.514.802-1.85.425-.335-.377-.05-1.177.635-1.788.686-.611 1.514-.801 1.85-.425.335.377.05 1.177-.635 1.788Z"/><g filter="url(#y)" opacity=".09" style="mix-blend-mode:multiply"><path fill="#011B04" d="M16.696 23.8c.827-2.05-.043-3.324-.581-3.705-1.55-1.916-3.64-.43-4.264.388-.625.818-1.53 2.26-.646 4.242.883 1.981 4.458 1.637 5.491-.926Z"/></g><g filter="url(#z)" opacity=".09" style="mix-blend-mode:multiply"><path fill="#011B04" d="M38.183 23.829c-.827-2.04.043-3.306.582-3.685 1.551-1.906 3.64-.428 4.265.386.625.814 1.53 2.25.646 4.22-.883 1.97-4.459 1.628-5.493-.921Z"/></g><path fill="#202124" d="M42.875 25.238c1.289-.857 1.496-2.811.462-4.364-1.033-1.553-2.916-2.117-4.204-1.26-1.29.858-1.496 2.812-.463 4.365 1.034 1.553 2.916 2.117 4.205 1.26Z"/><g filter="url(#A)"><path fill="#000" d="M16.208 23.907c1.034-1.553.85-3.491-.408-4.329-1.26-.838-3.118-.258-4.151 1.295-1.034 1.553-.85 3.491.408 4.33 1.26.837 3.118.257 4.151-1.296Z"/></g><g filter="url(#B)"><path fill="#000" d="M38.669 23.939c-1.033-1.552-.85-3.49.408-4.328 1.259-.837 3.117-.257 4.15 1.295 1.033 1.553.85 3.49-.409 4.328-1.258.837-3.116.257-4.15-1.295Z"/></g><mask id="C" width="7" height="7" x="10" y="19" maskUnits="userSpaceOnUse" style="mask-type:alpha"><path fill="#202124" d="M16.208 23.908c1.034-1.553.85-3.492-.408-4.33-1.26-.837-3.118-.258-4.151 1.296-1.034 1.553-.85 3.491.408 4.329 1.26.838 3.118.258 4.151-1.295Z"/></mask><g mask="url(#C)"><g filter="url(#D)"><path fill="#D8D8D8" fill-opacity=".29" d="M12.02 20.681c-.988 1.212-1.1 2.625-.978 3.226-.25-1.173-.16-2.323.796-3.474.527-.635 1.33-.988 1.915-1.157.094-.031.179-.052.258-.067a2.86 2.86 0 0 1 .357-.061c-.1.022-.218.034-.357.06-.08.019-.166.04-.258.068-.41.134-.965.464-1.733 1.405Z"/></g><g filter="url(#E)" opacity=".8"><path fill="url(#F)" d="M16.479 20.979c-.41-1.715-1.808-1.893-2.455-1.768.558-.243 1.562.067 1.986.553.34.388.454.971.469 1.215Z"/></g></g><mask id="G" width="7" height="7" x="37" y="19" maskUnits="userSpaceOnUse" style="mask-type:alpha"><path fill="#202124" d="M38.669 23.938c-1.033-1.552-.85-3.49.408-4.327 1.259-.837 3.117-.258 4.15 1.295 1.033 1.552.85 3.49-.409 4.327-1.258.837-3.116.258-4.15-1.295Z"/></mask><g mask="url(#G)"><path fill="url(#H)" d="M40.291 19.52c-1.471.092-1.953 1.24-2.01 1.802.15-.348.68-1.086 1.608-1.256.929-.17 2.16.896 2.659 1.45L43.01 21c-.293-.531-1.248-1.57-2.72-1.479Z"/><g filter="url(#I)"><path fill="#D8D8D8" fill-opacity=".29" d="M42.855 20.714c.988 1.211 1.099 2.623.978 3.225.25-1.173.159-2.323-.796-3.474-.527-.634-1.329-.986-1.915-1.156a2.125 2.125 0 0 0-.257-.067 2.825 2.825 0 0 0-.358-.06c.101.021.219.033.358.06.08.018.166.04.257.067.41.134.965.464 1.733 1.405Z"/></g></g><g filter="url(#J)" opacity=".8"><path fill="#E2DCE1" d="M13.329 20.217c-.575.115-1.007.719-1.15 1.006l.287.432a2.52 2.52 0 0 1 .431-.575c.23-.23.575-.48.72-.575l-.288-.288Z"/></g><g filter="url(#K)" opacity=".8"><path fill="#E2DCE1" d="M41.572 20.246c.569.11.995.69 1.137.965l-.284.413a2.425 2.425 0 0 0-.426-.551 5.395 5.395 0 0 0-.71-.551l.283-.276Z"/></g><g fill="#E2DCE1" filter="url(#L)" opacity=".8"><path d="M15.687 23.326c-.276.155-.703.352-.883.43l-.172.496c.43-.138.754-.387.861-.495l.194-.43Zm.861-2.175a2.64 2.64 0 0 0-.172-.43v.193c.086.155.15.424.172.538a.597.597 0 0 0 0-.301Z"/></g><g fill="#E2DCE1" filter="url(#M)" opacity=".8"><path d="M39.154 23.369c.276.155.705.351.884.43l.173.496a2.351 2.351 0 0 1-.863-.496l-.194-.43Zm-.862-2.175a2.63 2.63 0 0 1 .172-.431v.193a2.16 2.16 0 0 0-.172.539.595.595 0 0 1 0-.302Z"/></g><g filter="url(#N)" opacity=".3"><path fill="url(#O)" fill-opacity=".4" d="M48.222 21.232c0 7.112-9.796-5.996-20.76-5.996-10.963 0-20.76 13.108-20.76 5.996 1.953-5.769 9.797-11.97 20.76-11.97 10.964 0 19.42 6.883 20.76 11.97Z"/></g><g filter="url(#P)" opacity=".2"><path fill="url(#Q)" fill-opacity=".4" d="M48.222 21.232c0 7.112-9.796-5.996-20.76-5.996-10.963 0-20.76 13.108-20.76 5.996 1.953-5.769 9.797-11.97 20.76-11.97 10.964 0 19.42 6.883 20.76 11.97Z"/></g></g><defs><filter id="c" width="31.254" height="38.571" x="1.176" y="7.331" color-interpolation-filters="sRGB" filterUnits="userSpaceOnUse"><feFlood flood-opacity="0" result="BackgroundImageFix"/><feBlend in="SourceGraphic" in2="BackgroundImageFix" result="shape"/><feGaussianBlur result="effect1_foregroundBlur_83_5181" stdDeviation=".861"/></filter><filter id="e" width="32.977" height="40.294" x="21.678" y="6.47" color-interpolation-filters="sRGB" filterUnits="userSpaceOnUse"><feFlood flood-opacity="0" result="BackgroundImageFix"/><feBlend in="SourceGraphic" in2="BackgroundImageFix" result="shape"/><feGaussianBlur result="effect1_foregroundBlur_83_5181" stdDeviation="1.292"/></filter><filter id="g" width="19.041" height="29.787" x="-4.861" y="8.934" color-interpolation-filters="sRGB" filterUnits="userSpaceOnUse"><feFlood flood-opacity="0" result="BackgroundImageFix"/><feBlend in="SourceGraphic" in2="BackgroundImageFix" result="shape"/><feGaussianBlur result="effect1_foregroundBlur_83_5181" stdDeviation=".646"/></filter><filter id="h" width="19.041" height="29.787" x="40.435" y="8.934" color-interpolation-filters="sRGB" filterUnits="userSpaceOnUse"><feFlood flood-opacity="0" result="BackgroundImageFix"/><feBlend in="SourceGraphic" in2="BackgroundImageFix" result="shape"/><feGaussianBlur result="effect1_foregroundBlur_83_5181" stdDeviation=".646"/></filter><filter id="i" width="8.952" height="15.433" x="6.136" y="-2.631" color-interpolation-filters="sRGB" filterUnits="userSpaceOnUse"><feFlood flood-opacity="0" result="BackgroundImageFix"/><feBlend in="SourceGraphic" in2="BackgroundImageFix" result="shape"/><feGaussianBlur result="effect1_foregroundBlur_83_5181" stdDeviation=".861"/></filter><filter id="j" width="8.12" height="11.884" x="5.216" y=".007" color-interpolation-filters="sRGB" filterUnits="userSpaceOnUse"><feFlood flood-opacity="0" result="BackgroundImageFix"/><feBlend in="SourceGraphic" in2="BackgroundImageFix" result="shape"/><feGaussianBlur result="effect1_foregroundBlur_83_5181" stdDeviation=".215"/></filter><filter id="k" width="11.284" height="11.436" x="6.961" y="-1.095" color-interpolation-filters="sRGB" filterUnits="userSpaceOnUse"><feFlood flood-opacity="0" result="BackgroundImageFix"/><feBlend in="SourceGraphic" in2="BackgroundImageFix" result="shape"/><feGaussianBlur result="effect1_foregroundBlur_83_5181" stdDeviation=".646"/></filter><filter id="n" width="7.944" height="11.998" x="41.443" y=".085" color-interpolation-filters="sRGB" filterUnits="userSpaceOnUse"><feFlood flood-opacity="0" result="BackgroundImageFix"/><feBlend in="SourceGraphic" in2="BackgroundImageFix" result="shape"/><feGaussianBlur result="effect1_foregroundBlur_83_5181" stdDeviation=".215"/></filter><filter id="p" width="10.163" height="5.424" x="37.891" y="9.031" color-interpolation-filters="sRGB" filterUnits="userSpaceOnUse"><feFlood flood-opacity="0" result="BackgroundImageFix"/><feBlend in="SourceGraphic" in2="BackgroundImageFix" result="shape"/><feGaussianBlur result="effect1_foregroundBlur_83_5181" stdDeviation=".431"/></filter><filter id="q" width="3.393" height="2.266" x="36.624" y="8.46" color-interpolation-filters="sRGB" filterUnits="userSpaceOnUse"><feFlood flood-opacity="0" result="BackgroundImageFix"/><feBlend in="SourceGraphic" in2="BackgroundImageFix" result="shape"/><feGaussianBlur result="effect1_foregroundBlur_83_5181" stdDeviation=".258"/></filter><filter id="s" width="10.089" height="5.59" x="6.62" y="9.217" color-interpolation-filters="sRGB" filterUnits="userSpaceOnUse"><feFlood flood-opacity="0" result="BackgroundImageFix"/><feBlend in="SourceGraphic" in2="BackgroundImageFix" result="shape"/><feGaussianBlur result="effect1_foregroundBlur_83_5181" stdDeviation=".431"/></filter><filter id="t" width="3.369" height="2.31" x="14.587" y="8.61" color-interpolation-filters="sRGB" filterUnits="userSpaceOnUse"><feFlood flood-opacity="0" result="BackgroundImageFix"/><feBlend in="SourceGraphic" in2="BackgroundImageFix" result="shape"/><feGaussianBlur result="effect1_foregroundBlur_83_5181" stdDeviation=".258"/></filter><filter id="u" width="8.773" height="15.51" x="40.105" y="-2.49" color-interpolation-filters="sRGB" filterUnits="userSpaceOnUse"><feFlood flood-opacity="0" result="BackgroundImageFix"/><feBlend in="SourceGraphic" in2="BackgroundImageFix" result="shape"/><feGaussianBlur result="effect1_foregroundBlur_83_5181" stdDeviation=".861"/></filter><filter id="v" width="11.792" height="13.306" x="36.851" y="-2.838" color-interpolation-filters="sRGB" filterUnits="userSpaceOnUse"><feFlood flood-opacity="0" result="BackgroundImageFix"/><feBlend in="SourceGraphic" in2="BackgroundImageFix" result="shape"/><feGaussianBlur result="effect1_foregroundBlur_83_5181" stdDeviation=".646"/></filter><filter id="y" width="6.717" height="7.358" x="10.579" y="18.9" color-interpolation-filters="sRGB" filterUnits="userSpaceOnUse"><feFlood flood-opacity="0" result="BackgroundImageFix"/><feBlend in="SourceGraphic" in2="BackgroundImageFix" result="shape"/><feGaussianBlur result="effect1_foregroundBlur_83_5181" stdDeviation=".129"/></filter><filter id="z" width="6.719" height="7.322" x="37.584" y="18.954" color-interpolation-filters="sRGB" filterUnits="userSpaceOnUse"><feFlood flood-opacity="0" result="BackgroundImageFix"/><feBlend in="SourceGraphic" in2="BackgroundImageFix" result="shape"/><feGaussianBlur result="effect1_foregroundBlur_83_5181" stdDeviation=".129"/></filter><filter id="A" width="6.071" height="6.564" x="10.85" y="19.194" color-interpolation-filters="sRGB" filterUnits="userSpaceOnUse"><feFlood flood-opacity="0" result="BackgroundImageFix"/><feColorMatrix in="SourceAlpha" result="hardAlpha" values="0 0 0 0 0 0 0 0 0 0 0 0 0 0 0 0 0 0 127 0"/><feOffset dx="-.043" dy=".086"/><feGaussianBlur stdDeviation=".043"/><feComposite in2="hardAlpha" operator="out"/><feColorMatrix values="0 0 0 0 0.0156863 0 0 0 0 0.231373 0 0 0 0 0.0666667 0 0 0 0.7 0"/><feBlend in2="BackgroundImageFix" result="effect1_dropShadow_83_5181"/><feBlend in="SourceGraphic" in2="effect1_dropShadow_83_5181" result="shape"/></filter><filter id="B" width="6.069" height="6.561" x="37.87" y="19.228" color-interpolation-filters="sRGB" filterUnits="userSpaceOnUse"><feFlood flood-opacity="0" result="BackgroundImageFix"/><feColorMatrix in="SourceAlpha" result="hardAlpha" values="0 0 0 0 0 0 0 0 0 0 0 0 0 0 0 0 0 0 127 0"/><feOffset dx="-.043" dy=".086"/><feGaussianBlur stdDeviation=".043"/><feComposite in2="hardAlpha" operator="out"/><feColorMatrix values="0 0 0 0 0.0156863 0 0 0 0 0.231373 0 0 0 0 0.0666667 0 0 0 0.7 0"/><feBlend in2="BackgroundImageFix" result="effect1_dropShadow_83_5181"/><feBlend in="SourceGraphic" in2="effect1_dropShadow_83_5181" result="shape"/></filter><filter id="D" width="3.618" height="4.932" x="10.837" y="19.062" color-interpolation-filters="sRGB" filterUnits="userSpaceOnUse"><feFlood flood-opacity="0" result="BackgroundImageFix"/><feBlend in="SourceGraphic" in2="BackgroundImageFix" result="shape"/><feGaussianBlur result="effect1_foregroundBlur_83_5181" stdDeviation=".043"/></filter><filter id="E" width="2.498" height="1.895" x="14.002" y="19.105" color-interpolation-filters="sRGB" filterUnits="userSpaceOnUse"><feFlood flood-opacity="0" result="BackgroundImageFix"/><feBlend in="SourceGraphic" in2="BackgroundImageFix" result="shape"/><feGaussianBlur result="effect1_foregroundBlur_83_5181" stdDeviation=".011"/></filter><filter id="I" width="3.617" height="4.93" x="40.421" y="19.095" color-interpolation-filters="sRGB" filterUnits="userSpaceOnUse"><feFlood flood-opacity="0" result="BackgroundImageFix"/><feBlend in="SourceGraphic" in2="BackgroundImageFix" result="shape"/><feGaussianBlur result="effect1_foregroundBlur_83_5181" stdDeviation=".043"/></filter><filter id="J" width="1.61" height="1.61" x="12.093" y="20.131" color-interpolation-filters="sRGB" filterUnits="userSpaceOnUse"><feFlood flood-opacity="0" result="BackgroundImageFix"/><feBlend in="SourceGraphic" in2="BackgroundImageFix" result="shape"/><feGaussianBlur result="effect1_foregroundBlur_83_5181" stdDeviation=".043"/></filter><filter id="K" width="1.594" height="1.551" x="41.202" y="20.16" color-interpolation-filters="sRGB" filterUnits="userSpaceOnUse"><feFlood flood-opacity="0" result="BackgroundImageFix"/><feBlend in="SourceGraphic" in2="BackgroundImageFix" result="shape"/><feGaussianBlur result="effect1_foregroundBlur_83_5181" stdDeviation=".043"/></filter><filter id="L" width="2.022" height="3.618" x="14.589" y="20.677" color-interpolation-filters="sRGB" filterUnits="userSpaceOnUse"><feFlood flood-opacity="0" result="BackgroundImageFix"/><feBlend in="SourceGraphic" in2="BackgroundImageFix" result="shape"/><feGaussianBlur result="effect1_foregroundBlur_83_5181" stdDeviation=".022"/></filter><filter id="M" width="2.024" height="3.618" x="38.23" y="20.72" color-interpolation-filters="sRGB" filterUnits="userSpaceOnUse"><feFlood flood-opacity="0" result="BackgroundImageFix"/><feBlend in="SourceGraphic" in2="BackgroundImageFix" result="shape"/><feGaussianBlur result="effect1_foregroundBlur_83_5181" stdDeviation=".022"/></filter><filter id="N" width="44.966" height="17.53" x="4.979" y="7.54" color-interpolation-filters="sRGB" filterUnits="userSpaceOnUse"><feFlood flood-opacity="0" result="BackgroundImageFix"/><feBlend in="SourceGraphic" in2="BackgroundImageFix" result="shape"/><feGaussianBlur result="effect1_foregroundBlur_83_5181" stdDeviation=".861"/></filter><filter id="P" width="44.966" height="17.53" x="4.979" y="7.54" color-interpolation-filters="sRGB" filterUnits="userSpaceOnUse"><feFlood flood-opacity="0" result="BackgroundImageFix"/><feBlend in="SourceGraphic" in2="BackgroundImageFix" result="shape"/><feGaussianBlur result="effect1_foregroundBlur_83_5181" stdDeviation=".861"/></filter><linearGradient id="d" x1="7.421" x2="15.54" y1="19.421" y2="25.148" gradientUnits="userSpaceOnUse"><stop stop-color="#A8F0B9"/><stop offset="1" stop-color="#ADEEBC" stop-opacity="0"/></linearGradient><linearGradient id="f" x1="47.549" x2="39.429" y1="19.421" y2="25.148" gradientUnits="userSpaceOnUse"><stop stop-color="#A8F0B9"/><stop offset="1" stop-color="#ADEEBC" stop-opacity="0"/></linearGradient><linearGradient id="F" x1="14.197" x2="14.307" y1="18.526" y2="20.957" gradientUnits="userSpaceOnUse"><stop stop-color="#E2DDE2"/><stop offset="1" stop-color="#E2DDE2" stop-opacity="0"/></linearGradient><linearGradient id="H" x1="40.647" x2="40.647" y1="19.515" y2="21.516" gradientUnits="userSpaceOnUse"><stop stop-color="#373637"/><stop offset="1" stop-color="#373637" stop-opacity="0"/></linearGradient><linearGradient id="O" x1="27.462" x2="27.462" y1="8.881" y2="18.817" gradientUnits="userSpaceOnUse"><stop stop-color="#A8F0B9"/><stop offset="1" stop-color="#ADEEBC" stop-opacity="0"/></linearGradient><linearGradient id="Q" x1="27.462" x2="27.462" y1="8.881" y2="18.817" gradientUnits="userSpaceOnUse"><stop stop-color="#A8F0B9"/><stop offset="1" stop-color="#ADEEBC" stop-opacity="0"/></linearGradient><radialGradient id="l" cx="0" cy="0" r="1" gradientTransform="rotate(163.34 4.233 1.363)scale(2.00998 1.45654)" gradientUnits="userSpaceOnUse"><stop stop-color="#fff"/><stop offset=".948" stop-color="#fff" stop-opacity="0"/></radialGradient><radialGradient id="m" cx="0" cy="0" r="1" gradientTransform="rotate(163.34 21.801 3.721)scale(2.00998 1.45654)" gradientUnits="userSpaceOnUse"><stop stop-color="#fff"/><stop offset=".948" stop-color="#fff" stop-opacity="0"/></radialGradient><radialGradient id="w" cx="0" cy="0" r="1" gradientTransform="matrix(-.53717 .5713 -1.04053 -.97835 15.724 20.177)" gradientUnits="userSpaceOnUse"><stop stop-color="#93E19F"/><stop offset="1" stop-color="#93E19F" stop-opacity="0"/></radialGradient><radialGradient id="x" cx="0" cy="0" r="1" gradientTransform="rotate(46.764 -3.795 55.383)scale(.78386 1.42764)" gradientUnits="userSpaceOnUse"><stop stop-color="#93E19F"/><stop offset="1" stop-color="#93E19F" stop-opacity="0"/></radialGradient><clipPath id="a"><path fill="#fff" d="M0 0h54.936v32H0z"/></clipPath></defs></svg>