<svg t="1640345405019" class="icon" viewBox="0 0 1024 1024" version="1.1" xmlns="http://www.w3.org/2000/svg" p-id="2460" width="256" height="256"><path d="M908 694.272q-22.272 71.424-70.272 142.848-73.728 112-146.848 112-28 0-80-18.272-49.152-18.272-86.272-18.272-34.848 0-81.152 18.848-46.272 19.424-75.424 19.424-86.848 0-172-148-84-149.152-84-287.424 0-130.272 64.576-213.728 64-82.272 162.272-82.272 41.152 0 101.152 17.152 59.424 17.152 78.848 17.152 25.728 0 81.728-19.424 58.272-19.424 98.848-19.424 68 0 121.728 37.152 29.728 20.576 59.424 57.152-45.152 38.272-65.152 67.424-37.152 53.728-37.152 118.272 0 70.848 39.424 127.424t90.272 72zM693.152 24q0 34.848-16.576 77.728-17.152 42.848-53.152 78.848-30.848 30.848-61.728 41.152-21.152 6.272-59.424 9.728 1.728-85.152 44.576-146.848 42.272-61.152 142.848-84.576 0.576 1.728 1.44 6.272t1.44 6.272q0 2.272 0.288 5.728t0.288 5.728z" p-id="2461"></path></svg>