<svg t="1640345999456" class="icon" viewBox="0 0 1024 1024" version="1.1" xmlns="http://www.w3.org/2000/svg" p-id="5321" width="256" height="256"><path d="M107.101091 296.556606c5.771636-9.588364 12.412121-18.587152 19.828364-26.872242 6.640485-7.354182 13.715394-14.273939 21.131636-20.790303 17.408-13.808485 35.250424-27.058424 56.009697-35.250425a23.924364 23.924364 0 0 1-0.682667 6.454303 694.272 694.272 0 0 0-20.448969 92.594425c-3.692606 25.786182-5.12 51.665455-6.516364 77.761939-0.682667 13.467152 0.775758 26.841212 1.334303 40.277333 0.589576 14.118788 1.830788 28.268606 3.630545 42.263273 2.265212 17.37697 5.15103 34.598788 8.812606 51.665455 7.105939 32.768 16.787394 64.853333 29.013334 95.976727 9.433212 23.955394 20.48 47.197091 33.047272 69.569939 15.204848 27.182545 32.426667 53.061818 51.510304 77.513697a673.450667 673.450667 0 0 0 54.178909 59.578182c13.622303 13.591273 28.020364 26.251636 43.132121 37.981091a567.420121 567.420121 0 0 0 154.810182 86.419394c26.965333 9.929697 54.644364 17.687273 82.788848 23.117576 2.01697 0.434424 4.871758 0.310303 5.213091 3.630545a10.581333 10.581333 0 0 1-2.07903 0.96194c-21.441939 5.368242-43.287273 9.029818-65.287758 10.922666-5.957818 0.589576-12.101818 0-17.842424 2.172121h-10.333091a26.903273 26.903273 0 0 0-17.283879 0h-33.605818a44.280242 44.280242 0 0 0-15.484121-2.203151 364.606061 364.606061 0 0 1-47.817697-7.540364c-0.310303-2.730667-2.389333-3.754667-4.406303-5.026909-10.798545-6.671515-21.721212-13.218909-32.364606-20.169697a631.156364 631.156364 0 0 1-90.918788-72.73503 626.098424 626.098424 0 0 1-57.840485-63.425939 652.567273 652.567273 0 0 1-52.999758-77.110304 694.272 694.272 0 0 1-47.16606-96.876606 681.766788 681.766788 0 0 1-32.023273-106.744242 648.285091 648.285091 0 0 1-12.877576-90.391273c-0.496485-7.695515-0.217212-15.422061-1.08606-23.024485a363.55103 363.55103 0 0 1-0.682667-54.551272c0.837818-21.566061 2.544485-43.194182 5.399273-64.636122 0.465455-3.754667 2.792727-7.695515-0.093091-11.481212z" fill="#F92432" p-id="5322"></path><path d="M972.939636 445.284848c1.675636 8.905697 2.792727 17.935515 3.258182 27.027394 0.217212 1.799758-0.837818 4.096 1.272243 5.306182v51.13794c-0.837818 0.310303-0.930909 1.05503-1.241213 1.799757-2.141091 5.864727-0.713697 12.039758-1.551515 18.059637-2.668606 21.255758-7.105939 42.232242-13.187878 62.743272-4.964848 15.949576-9.309091 32.240485-17.035637 47.166061a12.039758 12.039758 0 0 0-7.633454 1.768727c-11.108848 5.771636-22.49697 10.953697-34.133334 15.484121-16.787394 5.678545-34.071273 9.929697-51.2 14.522182a10.550303 10.550303 0 0 0-7.447272 5.647515c-2.916848 5.430303-5.08897 11.419152-10.767516 14.925576-9.495273 5.957818-20.542061 7.788606-30.347636 12.815515-6.826667 2.792727-13.932606 4.964848-21.162667 6.392243-11.574303 3.413333-23.458909 5.616485-35.467636 6.578424a26.437818 26.437818 0 0 0-19.052606 10.24c-6.019879 7.261091-11.884606 15.639273-23.055515 13.653333-4.499394-0.806788-8.998788-1.551515-13.498182-2.265212a330.876121 330.876121 0 0 1-77.513697-21.814303c-1.985939-0.837818-3.971879-1.737697-3.971879-4.468364 12.31903-5.647515 24.234667-12.163879 35.684849-19.54909a203.682909 203.682909 0 0 0 48.314182-44.559516l7.292121-8.595394c2.265212 1.05503 4.654545 1.861818 7.074909 2.420364 17.066667 2.296242 34.288485 3.10303 51.510303 2.482424 8.192-0.310303 9.464242-1.551515 11.512242-9.960727 3.413333-14.739394 5.802667-29.696 7.168-44.776727 1.551515-15.670303 1.644606-31.464727 0.310303-47.166061a355.762424 355.762424 0 0 0-9.960727-52.627394c1.334303 0 2.637576 0.155152 3.940849 0.465455 14.36703 5.430303 28.237576 12.101818 41.549575 19.859394 1.241212 0.868848 2.575515 1.551515 3.940849 2.11006 1.241212 0.372364 2.854788 0.682667 3.723636-0.620606 0.868848-1.303273-0.217212-2.296242-0.744727-3.258182-3.537455-6.547394-7.168-13.032727-10.705455-19.54909-6.17503-11.388121-14.491152-21.255758-21.224727-32.240485 3.785697 0.062061 7.571394-0.217212 11.326061-0.837818 16.104727-4.096 31.71297-9.495273 47.538424-14.739394 10.177939 10.984727 19.083636 23.148606 26.530909 36.243394a4.375273 4.375273 0 0 0 2.761697 2.699636c1.241212 0.403394 2.637576 0.186182 3.723636-0.620606 9.867636-4.654545 19.828364-8.998788 29.851152-13.653333 15.825455-7.354182 31.681939-14.863515 47.538424-22.248728 0.837818 6.733576-1.179152 13.653333 1.241212 20.44897l-0.992969 32.178424c-1.427394 21.100606-4.716606 42.01503-7.943758 62.991515a240.050424 240.050424 0 0 0 18.028606-62.029575 36.305455 36.305455 0 0 0 1.148121-4.406303c1.148121-8.843636 2.234182-17.687273 3.320243-26.468849l0.310303-40.742788z" fill="#FEB202" p-id="5323"></path><path d="M530.850909 994.210909a13.405091 13.405091 0 0 1 17.252849 0h-17.252849z" fill="#FE3C24" p-id="5324"></path><path d="M957.92097 463.282424c-15.887515 7.385212-31.71297 14.894545-47.569455 22.248728-9.929697 4.654545-19.828364 8.998788-29.851151 13.653333a4.189091 4.189091 0 0 1-3.723637 0.620606 4.375273 4.375273 0 0 1-2.761697-2.699636 194.839273 194.839273 0 0 0-26.499878-36.243394 29.789091 29.789091 0 0 0-2.854788-4.437334 553.270303 553.270303 0 0 0-52.937697-50.889697c-23.489939-19.48703-48.034909-37.670788-70.438788-58.585212a378.973091 378.973091 0 0 1-52.627394-59.267879c-33.264485-47.507394-42.511515-100.724364-36.181333-157.633939 3.289212-27.027394 9.929697-53.527273 19.797333-78.81697 3.134061-9.18497 7.13697-18.028606 11.884606-26.437818 1.768727 4.654545 3.847758 9.18497 6.206061 13.560243a259.630545 259.630545 0 0 0 66.404848 73.665939c25.63103 20.014545 51.510303 39.470545 74.876121 62.464 1.241212 1.551515 3.165091 2.358303 5.12 2.234182 2.730667 1.365333 2.451394 5.461333 5.492364 6.547394 3.227152 4.654545 7.074909 8.781576 11.419151 12.288 0.496485 3.10303 2.854788 5.523394 5.864728 5.988848a5.08897 5.08897 0 0 0 4.561454 4.778667l1.148121 1.241212a2.451394 2.451394 0 0 0 1.241213 2.451394 14.087758 14.087758 0 0 0 4.437333 4.809697 4.096 4.096 0 0 0 2.482424 3.599515c2.606545 3.878788 5.647515 7.447273 9.029818 10.643394a4.096 4.096 0 0 0 2.482425 3.599515l2.11006 2.389333a6.950788 6.950788 0 0 0 1.830788 3.568485 490.46497 490.46497 0 0 1 50.20703 82.230303c0.775758 1.706667 1.241212 3.785697 3.320243 4.561455 10.674424 23.676121 19.176727 48.345212 25.413818 73.665939 4.716606 18.307879 7.819636 36.926061 9.309091 55.792485a28.330667 28.330667 0 0 0 0.899879 4.096c-0.124121 1.489455-0.124121 2.916848-0.124122 4.313212z" fill="#FEE745" p-id="5325"></path><path d="M423.610182 92.811636a415.123394 415.123394 0 0 1 193.132606 3.196122 287.433697 287.433697 0 0 0-19.021576 80.647757c-4.251152 57.095758 12.691394 107.799273 44.466424 153.848243 12.815515 17.501091 27.244606 33.698909 43.070061 48.376242-5.213091 0-10.177939 1.923879-15.422061 1.303273-1.117091 0-2.420364 0-2.854788 1.303272-0.434424 1.303273 0.372364 2.296242 1.241213 3.103031 1.365333 1.365333 2.792727 2.668606 4.313212 3.847757 5.213091 3.692606 9.867636 8.129939 13.808485 13.218909a168.184242 168.184242 0 0 1 22.869333 52.006788c2.699636 8.998788 4.623515 18.276848 5.709576 27.648 0.372364 3.351273-0.341333 5.771636-4.437334 5.864728a309.682424 309.682424 0 0 1-64.54303-4.096 282.375758 282.375758 0 0 1-159.402667-90.04994c-2.792727-3.196121-3.382303-5.182061 0.775758-8.192 17.718303-13.156848 26.965333-30.782061 24.855273-53.837576 0-1.985939 0.186182-4.096 0.279272-5.957818 0.465455-9.122909-0.775758-11.170909-9.27806-14.39806a65.877333 65.877333 0 0 0-17.221818-4.096 328.610909 328.610909 0 0 0-37.981091-4.809697 29.66497 29.66497 0 0 0-9.247031-1.644606 30.844121 30.844121 0 0 0-1.148121-5.12 304.190061 304.190061 0 0 1-13.032727-48.221091 21.938424 21.938424 0 0 1 5.057939-20.48 15.515152 15.515152 0 0 0 2.978909-14.336c-0.837818-3.413333-1.861818-6.826667-3.072-10.115879 6.019879-6.578424 12.660364-12.474182 19.828364-17.656243 0.99297-0.775758 3.320242-1.582545 2.606545-2.513454-2.885818-3.847758 0.99297-3.196121 2.234182-3.816727 3.413333-1.799758 7.012848-3.227152 10.953697-5.026909a25.755152 25.755152 0 0 0-11.884606-4.344243c-15.018667-2.01697-29.696 1.05503-44.435394 3.413333-0.713697-16.384 3.320242-31.961212 6.454303-47.755636 2.141091-10.612364 6.826667-20.604121 8.378182-31.309576z" fill="#0080FC" p-id="5326"></path><path d="M107.101091 296.556606c2.730667 3.816727 0.558545 7.757576 0 11.512242a692.999758 692.999758 0 0 0-5.399273 64.636122c-1.117091 18.152727-0.930909 36.398545 0.682667 54.551272 0.868848 7.602424 0.620606 15.32897 1.117091 23.024485 2.172121 30.409697 6.454303 60.633212 12.877576 90.391273 7.757576 36.429576 18.46303 72.145455 32.023272 106.744242 13.218909 33.512727 28.982303 65.908364 47.166061 96.876606 15.825455 26.996364 33.574788 52.751515 53.061818 77.110304a626.067394 626.067394 0 0 0 57.871515 63.394909 631.156364 631.156364 0 0 0 90.887758 72.73503c10.643394 6.950788 21.566061 13.498182 32.364606 20.169697 2.01697 1.241212 3.971879 2.296242 4.406303 5.026909a402.959515 402.959515 0 0 1-115.618909-40.463515C262.593939 912.41503 212.014545 874.806303 170.682182 825.37503 112.934788 756.208485 75.853576 676.926061 63.317333 585.976242a433.152 433.152 0 0 1-4.002909-69.818181 8.998788 8.998788 0 0 0-0.744727-4.096c-4.778667 13.653333-8.812606 27.523879-12.039758 41.642666 1.954909-54.613333 8.750545-108.357818 27.151516-160.116363-8.409212 10.488242-13.746424 22.807273-20.945455 33.947151 7.354182-28.578909 16.911515-56.537212 28.578909-83.533576a270.894545 270.894545 0 0 1 25.755152-47.445333z" fill="#D71358" p-id="5327"></path><path d="M685.257697 378.88c-15.825455-14.677333-30.254545-30.875152-43.070061-48.407273-31.71297-46.017939-48.717576-96.721455-44.466424-153.817212a287.433697 287.433697 0 0 1 19.021576-80.647757A396.163879 396.163879 0 0 1 673.373091 0c2.606545 20.169697 12.660364 35.374545 23.58303 49.958788 24.203636 32.302545 52.348121 60.819394 81.206303 88.622545 1.737697 2.327273 3.723636 4.406303 5.957818 6.268122 10.736485 10.798545 22.621091 20.48 32.426667 32.085333a6.144 6.144 0 0 1-5.08897-2.265212c-23.241697-22.962424-49.276121-42.418424-74.907151-62.43297a259.630545 259.630545 0 0 1-66.373818-73.69697 109.071515 109.071515 0 0 1-6.206061-13.529212c-4.778667 8.378182-8.750545 17.252848-11.884606 26.437818a323.863273 323.863273 0 0 0-19.828364 78.81697c-6.330182 56.909576 2.947879 110.095515 36.181334 157.63394 15.515152 21.597091 33.202424 41.425455 52.751515 59.205818 22.434909 20.914424 46.948848 39.098182 70.438788 58.616242a553.270303 553.270303 0 0 1 52.937697 50.889697 29.789091 29.789091 0 0 1 2.854788 4.406303c-15.825455 5.244121-31.402667 10.674424-47.538425 14.739394-3.723636 0.620606-7.540364 0.930909-11.32606 0.868849-7.571394-8.812606-14.801455-18.059636-22.838303-26.406788a626.905212 626.905212 0 0 0-50.331152-45.614546c-2.203152-1.861818-3.940848-5.895758-7.912727-4.685576 0-0.930909-0.186182-1.396364-1.024-1.644606a234.402909 234.402909 0 0 0-21.193697-19.393939z" fill="#FDE301" p-id="5328"></path><path d="M203.884606 213.643636c-20.728242 8.192-38.570667 21.441939-55.978667 35.250425-7.447273 6.516364-14.491152 13.436121-21.162666 20.790303A268.194909 268.194909 0 0 1 145.857939 169.735758c3.971879-10.115879 10.488242-18.835394 15.515152-28.361697 1.365333-2.606545 2.482424-1.861818 3.630545 0l-0.775757-0.310303v0.713697l0.837818-0.527516c0-0.310303 0.248242-0.434424 0.527515-0.310303 2.699636 0 3.196121 2.265212 3.971879 4.344243 1.458424 3.878788 3.10303 7.633455 4.623515 11.450182a11.077818 11.077818 0 0 0 10.736485 7.136969c6.826667 0 13.653333 0.744727 20.324848 2.172122 4.964848 8.750545 10.550303 17.128727 16.632243 25.072484 1.272242 1.954909 2.947879 3.568485 4.933818 4.747637l6.17503 6.795636c-9.929697 2.978909-19.642182 6.640485-29.075394 10.953697z" fill="#D71358" p-id="5329"></path><path d="M296.199758 143.949576a336.058182 336.058182 0 0 1 64.108606-31.526788c2.575515 2.265212 1.365333 4.933818 0.868848 7.571394A311.606303 311.606303 0 0 0 353.76097 185.809455a52.130909 52.130909 0 0 1-0.99297 12.908606l-7.043879 6.609454a19.021576 19.021576 0 0 0-3.382303 3.10303c-2.265212 3.320242-4.778667 3.320242-8.316121 2.01697-11.170909-4.033939-22.652121-6.919758-34.350545-8.626424l-5.740607-1.427394c-0.403394-8.440242 1.768727-16.694303 1.179152-25.165576 0-4.499394 0.248242-8.967758 0.713697-13.405091 0.093091-5.926788 2.234182-11.915636 0.372364-17.873454z" fill="#154AC6" p-id="5330"></path><path d="M352.581818 198.718061a52.130909 52.130909 0 0 0 0.99297-12.908606c0.093091-22.186667 2.575515-44.311273 7.385212-65.939394 0.527515-2.637576 1.706667-5.306182-0.868848-7.571394 20.48-8.626424 41.704727-15.204848 63.394909-19.549091-1.551515 10.767515-6.206061 20.48-8.316122 31.278545-3.10303 15.732364-7.13697 31.371636-6.454303 47.693576a192.574061 192.574061 0 0 0-25.444848 11.915636c-0.775758 0.465455-2.420364 1.024-2.575515 0.837819-2.730667-4.096-4.964848-0.651636-7.043879 0.558545a63.51903 63.51903 0 0 0-17.904485 14.522182c-2.482424 3.382303-2.265212 0.062061-3.165091-0.837818z" fill="#045BE0" p-id="5331"></path><path d="M296.199758 143.949576c2.048 5.957818 0 11.946667-0.372364 17.873454a125.610667 125.610667 0 0 0-0.713697 13.405091c0.620606 8.471273-1.551515 16.725333-1.179152 25.134546-12.288 0-24.513939-2.637576-36.864-0.806788-8.067879 0.217212-16.135758 1.272242-24.017454 3.165091l-6.17503-6.795637a388.530424 388.530424 0 0 1 69.321697-51.975757z" fill="#2E309F" p-id="5332"></path><path d="M816.546909 176.934788c-9.805576-11.791515-21.721212-21.286788-32.426667-32.085333a38.074182 38.074182 0 0 1-5.957818-6.268122c3.971879-16.384 8.967758-32.116364 19.828364-45.924848 3.940848 20.759273 15.36 37.081212 25.196606 54.116848 3.009939 5.275152 6.17503 10.488242 9.24703 15.670303-2.947879 0.310303-3.04097 2.947879-3.940848 5.08897-2.172121 5.306182-2.482424 11.481212-6.609455 15.949576-2.668606-1.117091-2.668606-5.213091-5.337212-6.547394z" fill="#FD9101" p-id="5333"></path><path d="M205.063758 166.136242a99.855515 99.855515 0 0 0-20.324849-2.203151 11.077818 11.077818 0 0 1-10.736485-7.13697c-1.520485-3.816727-3.196121-7.571394-4.654545-11.419151-0.744727-2.07903-1.241212-4.096-3.971879-4.375273 5.368242-13.156848 11.419152-25.693091 24.265697-34.722909-0.217212 13.094788 1.303273 26.158545 4.530424 38.787879 0.496485 1.954909 1.086061 3.785697 1.551515 5.709575a10.24 10.24 0 0 0 5.709576 8.192c1.954909 0.868848 2.544485 4.716606 3.630546 7.13697z" fill="#F92432" p-id="5334"></path><path d="M822.070303 183.482182c3.971879-4.468364 4.437333-10.643394 6.609455-15.949576 0.868848-2.141091 0.930909-4.747636 3.971878-5.08897 14.056727 21.317818 27.741091 42.945939 40.122182 65.47394-1.427394 2.885818-2.296242 6.268121-5.895757 7.292121l-2.141091-2.358303c0-1.799758 0-3.568485-2.451394-3.599515a63.612121 63.612121 0 0 1-9.029818-10.643394c0-1.861818 0-3.599515-2.482425-3.599515a13.808485 13.808485 0 0 1-4.468363-4.716606 2.296242 2.296242 0 0 0-1.241212-2.420364l-1.117091-1.241212a4.809697 4.809697 0 0 0-4.561455-4.778667 6.764606 6.764606 0 0 0-5.895757-5.957818 59.298909 59.298909 0 0 1-11.419152-12.412121z" fill="#FEB202" p-id="5335"></path><path d="M866.753939 235.054545c3.599515-1.024 4.499394-4.437333 5.895758-7.292121 15.546182 25.258667 29.478788 51.572364 41.673697 78.723879 3.196121 6.019879 5.864727 12.381091 7.912727 18.928485-2.048-0.775758-2.544485-2.854788-3.320242-4.592485a490.46497 490.46497 0 0 0-50.269091-82.230303 6.950788 6.950788 0 0 1-1.861818-3.537455z" fill="#FDE301" p-id="5336"></path><path d="M957.92097 463.282424v-4.096l13.963636-18.338909c0.930909 1.303273 1.365333 2.916848 1.148121 4.530424 0 13.560242-0.186182 27.151515-0.279272 40.742788l-13.653334-2.420363c-2.482424-6.764606-0.496485-13.653333-1.210182-20.41794z" fill="#FD9101" p-id="5337"></path><path d="M232.804848 202.72097c7.850667-1.892848 15.918545-2.947879 23.986425-3.165091a19.704242 19.704242 0 0 1-0.651637 4.654545c-5.895758 15.204848-10.581333 30.844121-14.987636 46.607515a586.038303 586.038303 0 0 0-19.797333 141.001697c-0.248242 8.16097 0.651636 16.570182 0.899878 24.793212a549.763879 549.763879 0 0 0 18.866425 127.503516c0.620606 2.327273 0.620606 5.461333 4.15806 7.012848 2.203152-25.910303 7.912727-49.865697 24.389818-69.880242 6.826667-7.13697 14.708364-13.063758 23.334788-17.563152 5.523394-2.575515 11.170909-4.716606 16.818425-7.043879l19.549091-2.544484a7.943758 7.943758 0 0 1-2.606546 6.888727c-3.382303 3.196121-6.206061 6.981818-8.347151 11.170909-3.971879 9.371152-9.464242 17.966545-14.336 26.872242-4.437333 7.13697-7.354182 15.204848-8.533334 23.614061a58.33697 58.33697 0 0 1-4.344242 20.883394 179.293091 179.293091 0 0 0-16.880485 81.299394c0.186182 6.609455-0.403394 13.746424 2.575515 19.797333a540.113455 540.113455 0 0 0 171.008 201.014303 503.311515 503.311515 0 0 0 88.250182 50.362182c36.305455 16.197818 74.286545 28.175515 113.167515 35.777939a8.874667 8.874667 0 0 1 7.13697 4.902788l-11.915637 4.437334a252.400485 252.400485 0 0 0 48.034909-2.141091c13.777455-1.861818 27.306667-5.275152 40.308364-10.302061 4.902788-1.985939 8.998788-5.864727 14.522182-6.268121-3.537455 5.15103-7.912727 9.619394-12.939636 13.218909-26.437818 21.53503-57.095758 33.667879-89.119031 42.728727a7.912727 7.912727 0 0 1-1.706666 0c-0.310303-3.320242-3.165091-3.196121-5.182061-3.599515a533.410909 533.410909 0 0 1-82.850909-23.117576 567.420121 567.420121 0 0 1-154.748121-86.450424 457.448727 457.448727 0 0 1-43.132122-37.950061 673.450667 673.450667 0 0 1-54.209939-59.578181 616.510061 616.510061 0 0 1-51.510303-77.513697c-12.567273-22.403879-23.58303-45.614545-33.047273-69.60097a627.091394 627.091394 0 0 1-29.013333-95.976727c-3.630545-17.066667-6.516364-34.288485-8.781576-51.634425a486.555152 486.555152 0 0 1-3.661576-42.294303c-0.558545-13.405091-2.01697-26.810182-1.303272-40.277333 1.396364-25.941333 2.792727-51.820606 6.516363-77.761939 4.685576-31.309576 11.512242-62.246788 20.41794-92.563394a23.924364 23.924364 0 0 0 0.682666-6.485334c9.402182-4.251152 19.083636-7.881697 28.982303-10.860606z" fill="#FE3C24" p-id="5338"></path><path d="M917.705697 737.900606c-1.613576 15.080727-6.206061 29.696-13.405091 42.914909-3.754667 7.726545-8.22303 15.049697-13.28097 21.907394-1.241212 1.675636-2.07903 3.847758-4.344242 4.499394-7.633455-0.620606-14.646303 2.575515-21.845333 4.096a817.958788 817.958788 0 0 1-67.987394 12.567273c-6.919758 0.930909-14.242909 1.179152-19.269819 7.478303l-14.925575 18.680242a8.254061 8.254061 0 0 1-7.509334 3.506424c-3.971879-0.279273-7.633455 0-11.481212 0a204.986182 204.986182 0 0 1-43.380363-2.606545c-8.409212-1.644606-16.880485-2.947879-25.289697-4.468364a416.892121 416.892121 0 0 1-70.345697-18.618181 504.894061 504.894061 0 0 1-69.135515-33.016243 446.836364 446.836364 0 0 1-70.966303-49.772606c-2.575515-2.141091-5.771636-4.096-6.206061-8.192 16.35297 4.964848 33.109333 8.471273 50.082909 10.426182 16.228848 1.458424 32.581818 0.99297 48.717576-1.396364a248.335515 248.335515 0 0 0 52.068848-13.901576c0 2.730667 2.01697 3.630545 3.971879 4.468364 24.917333 10.426182 50.920727 17.780364 77.513697 21.876364 4.499394 0.713697 8.998788 1.489455 13.498182 2.265212 11.29503 2.01697 17.066667-6.392242 23.055515-13.653333a26.437818 26.437818 0 0 1 19.052606-10.20897c12.008727-0.961939 23.893333-3.196121 35.467636-6.578424 7.230061-1.458424 14.30497-3.599515 21.162667-6.392243 9.805576-5.026909 20.852364-6.888727 30.347636-12.815515 5.678545-3.506424 7.943758-9.495273 10.736485-14.925576a10.550303 10.550303 0 0 1 7.447273-5.647515c17.159758-4.592485 34.443636-8.843636 51.23103-14.553212 11.636364-4.530424 23.024485-9.681455 34.133334-15.453091a12.039758 12.039758 0 0 1 7.633454-1.799757c-6.423273 14.30497-13.312 28.392727-20.790303 42.139151-1.892848 3.413333-3.971879 6.671515-5.957818 10.022788l-14.956606 23.831273a706.156606 706.156606 0 0 1-56.32 69.569939 7.726545 7.726545 0 0 0 3.971879-0.899879 184.133818 184.133818 0 0 0 42.883878-30.161454c9.153939-8.129939 16.35297-18.40097 20.976485-29.944243l3.444364-5.275151z" fill="#FD9101" p-id="5339"></path><path d="M609.202424 732.004848a248.304485 248.304485 0 0 1-51.975757 13.746425 206.537697 206.537697 0 0 1-48.717576 1.396363 285.509818 285.509818 0 0 1-50.051879-10.426181c-7.943758-3.165091-16.166788-5.957818-23.800242-9.495273a156.578909 156.578909 0 0 1-70.469818-63.488c0.930909 0 1.861818 0.093091 2.792727 0.310303a208.802909 208.802909 0 0 0 50.982788 10.20897c9.650424 1.241212 19.456 0.99297 29.075394-0.713697a115.463758 115.463758 0 0 0 54.396121-14.956606c3.599515-1.551515 7.012848-3.568485 10.177939-5.957819l20.542061-10.984727c3.661576 4.096 8.998788 3.599515 13.684363 4.809697 1.334303 0.310303 2.916848 0.310303 3.134061 1.985939 0.248242 1.613576-1.489455 2.110061-2.637576 2.513455-7.726545 3.413333-15.080727 7.664485-21.969454 12.629333-1.241212 0.713697-3.165091 1.148121-3.103031 3.103031 0.093091 1.954909 2.203152 2.575515 3.723637 3.196121 14.398061 5.740606 29.137455 10.581333 44.06303 14.584242 24.141576 6.392242 48.655515 11.170909 73.355636 14.211879a10.395152 10.395152 0 0 0 7.943758-2.110061c8.005818-6.144 14.956606-13.591273 20.604121-22.062545 6.423273-9.309091 13.870545-8.688485 22.528-6.609455a203.651879 203.651879 0 0 1-48.593454 44.590546 283.865212 283.865212 0 0 1-35.684849 19.51806z" fill="#4A1575" p-id="5340"></path><path d="M693.232485 667.896242c-8.688485-2.07903-16.135758-2.730667-22.55903 6.609455a91.694545 91.694545 0 0 1-20.604122 22.031515 10.395152 10.395152 0 0 1-7.943757 2.172121 545.419636 545.419636 0 0 1-73.324606-14.273939 390.050909 390.050909 0 0 1-44.094061-14.584242c-1.520485-0.589576-3.630545-0.930909-3.723636-3.165091-0.062061-2.203152 1.861818-2.389333 3.10303-3.103031 6.888727-4.964848 14.273939-9.216 21.969455-12.629333 1.148121-0.403394 2.916848-0.713697 2.637575-2.513455-0.279273-1.799758-1.799758-1.644606-3.10303-1.985939-4.716606-1.241212-10.053818-0.620606-13.715394-4.809697 14.273939-8.471273 28.454788-15.825455 46.235152-11.015758 11.884606 3.134061 20.44897-8.192 17.314909-20.48a46.700606 46.700606 0 0 0-7.912728-13.529212c4.561455-0.186182 9.153939 0.434424 13.529213 1.861819 32.271515 8.129939 65.473939 11.915636 98.707393 11.29503 3.971879 0 5.08897-1.551515 6.206061-5.182061 3.134061-10.364121 5.368242-20.945455 7.912727-31.526788 0.589576-2.575515 1.644606-4.964848 4.189091-4.778666 7.385212 0.465455 14.211879-3.320242 21.597091-2.482425a166.632727 166.632727 0 0 1-6.826666 28.858182 228.165818 228.165818 0 0 1-32.488728 64.636121l-7.136969 8.595394z" fill="#2E309F" p-id="5341"></path><path d="M700.369455 659.300848a228.165818 228.165818 0 0 0 32.426666-64.667151c3.10303-9.371152 5.399273-19.021576 6.826667-28.858182a226.179879 226.179879 0 0 0-0.682667-85.736727 23.272727 23.272727 0 0 0-0.248242-2.327273 260.220121 260.220121 0 0 0-20.604121-60.353939c3.165091 0.620606 4.437333 3.475394 6.20606 5.709576a281.165576 281.165576 0 0 1 43.566546 86.667636c4.654545 17.252848 7.943758 34.84703 9.929697 52.627394 1.365333 15.670303 1.272242 31.464727-0.248243 47.16606-1.396364 15.049697-3.785697 30.006303-7.168 44.745697-2.07903 8.378182-3.351273 9.650424-11.543273 9.991758a304.717576 304.717576 0 0 1-51.510303-2.482424 35.126303 35.126303 0 0 1-6.981818-2.482425z" fill="#FDE301" p-id="5342"></path><path d="M768.046545 509.672727a281.165576 281.165576 0 0 0-43.566545-86.636606c-1.737697-2.265212-3.009939-5.08897-6.206061-5.740606 0.310303-1.241212 0-2.172121-1.365333-2.420363h0.248242l-1.11709-1.551516-8.378182-13.653333c3.940848-1.179152 5.678545 2.792727 7.912727 4.654545 17.532121 14.273939 34.350545 29.478788 50.300121 45.614546 7.943758 8.22303 15.266909 17.625212 22.838303 26.437818 6.733576 10.953697 15.049697 20.821333 21.224728 32.209455l10.705454 19.549091c0.527515 0.99297 1.489455 2.203152 0.744727 3.289212-0.744727 1.05503-2.482424 0.961939-3.723636 0.620606a21.47297 21.47297 0 0 1-3.971879-2.110061 271.949576 271.949576 0 0 0-41.518545-19.859394 18.090667 18.090667 0 0 0-4.127031-0.403394z" fill="#FD9101" p-id="5343"></path><path d="M968.192 516.871758a240.050424 240.050424 0 0 1-17.935515 61.843394c3.04097-20.945455 6.330182-41.859879 7.912727-62.991516l10.022788 1.148122z" fill="#FE6C0F" p-id="5344"></path><path d="M968.192 516.871758l-10.177939-1.148122 0.992969-32.147394 13.653334 2.420364c-1.086061 8.781576-2.172121 17.625212-3.320243 26.468849a36.305455 36.305455 0 0 1-1.148121 4.406303z" fill="#ED7922" p-id="5345"></path><path d="M656.430545 936.711758a8.874667 8.874667 0 0 0-7.136969-4.902788 525.746424 525.746424 0 0 1-113.136485-35.77794 503.311515 503.311515 0 0 1-88.250182-50.362182 540.113455 540.113455 0 0 1-171.008-201.014303c-2.978909-6.050909-2.389333-13.156848-2.575515-19.766303a179.293091 179.293091 0 0 1 16.880485-81.299394 58.33697 58.33697 0 0 0 4.344242-20.883393c1.179152-8.409212 4.096-16.446061 8.533334-23.614061 4.871758-8.936727 10.24-17.532121 14.336-26.903273 2.141091-4.189091 4.964848-7.974788 8.378181-11.170909a7.943758 7.943758 0 0 0 2.544485-6.888727c5.895758-0.310303 11.853576-0.310303 17.749334 0 3.971879 0.465455 8.657455-0.558545 12.132848 2.916848a29.66497 29.66497 0 0 0-16.787394 15.204849 53.744485 53.744485 0 0 0-0.310303 49.089939 20.262788 20.262788 0 0 1-1.272242 3.878788 233.782303 233.782303 0 0 0-28.547879 81.857939 15.980606 15.980606 0 0 0 5.895757 16.632243c12.101818 9.122909 26.251636 14.894545 41.115152 16.818424l15.577212 5.647515c1.334303 0.496485 3.723636 0.868848 1.644606 2.947879-4.592485 4.654545 1.458424 3.847758 2.358303 4.096 5.864727 1.799758 11.884606 3.10303 18.307879 4.654546a5.802667 5.802667 0 0 1-5.957818 1.551515c-7.912727-0.620606-15.825455-1.458424-23.769212-2.234182a44.621576 44.621576 0 0 1-12.319031-0.930909c-1.644606-0.620606-2.482424 0.341333-2.668606 2.016969-7.13697-2.761697-13.963636-6.392242-20.324848-10.798545-1.582545-1.024-3.475394-3.072-5.05794-1.675636-1.582545 1.396364 0.651636 3.444364 1.179152 5.15103 0.310303 0.744727 0.713697 1.396364 1.179151 2.01697 16.166788 27.927273 34.971152 54.209939 56.071758 78.382545a531.797333 531.797333 0 0 0 58.119758 57.064727c18.618182 15.422061 38.415515 29.323636 59.112727 41.580606 26.65503 16.073697 54.706424 29.416727 83.812848 39.90497 26.468848 9.557333 53.744485 16.663273 81.423515 21.224727 13.901576 2.482424 27.927273 4.189091 41.984 5.02691a10.767515 10.767515 0 0 0 7.912728-2.482425c5.213091-4.592485 10.364121-9.309091 15.825454-13.746424a30.626909 30.626909 0 0 1 16.570182-7.447273c20.076606-1.985939 40.153212-3.816727 60.105697-7.012848 3.971879-0.620606 8.192-3.072 12.225939 0-13.529212 9.216-27.61697 17.501091-42.201212 24.824242-4.437333 2.172121-8.750545 4.654545-13.125818 7.012849-0.775758 0-1.365333 0.310303-1.551515 1.210182a6.17503 6.17503 0 0 0-3.940848 0.713697c-16.601212 7.571394-33.419636 14.584242-50.579394 20.759272-17.904485 6.795636-36.181333 12.381091-54.799516 16.756364z" fill="#FE5618" p-id="5346"></path><path d="M822.504727 865.497212c-3.971879-3.04097-8.378182-0.620606-12.194909 0-19.828364 3.196121-40.060121 5.057939-60.105697 7.012849a30.626909 30.626909 0 0 0-16.570182 7.447272c-5.368242 4.468364-10.519273 9.18497-15.825454 13.746425a10.767515 10.767515 0 0 1-7.943758 2.482424 361.347879 361.347879 0 0 1-41.984-5.026909 459.279515 459.279515 0 0 1-81.423515-21.224728 471.598545 471.598545 0 0 1-83.781818-39.873939 462.289455 462.289455 0 0 1-59.143758-41.611636 531.797333 531.797333 0 0 1-58.119757-57.064728 498.905212 498.905212 0 0 1-56.071758-78.382545 8.564364 8.564364 0 0 1-1.179151-1.985939c-0.527515-1.737697-3.10303-3.537455-1.179152-5.151031 1.892848-1.644606 3.475394 0.620606 5.05794 1.675637 6.361212 4.375273 13.187879 8.005818 20.324848 10.798545 4.002909 1.396364 7.819636 3.196121 11.481212 5.399273a156.578909 156.578909 0 0 0 70.469818 63.488c7.912727 3.537455 15.825455 6.330182 23.769212 9.495273 0.434424 4.096 3.661576 6.019879 6.206061 8.160969a446.836364 446.836364 0 0 0 70.997333 49.772606c22.217697 12.784485 45.304242 23.831273 69.135516 33.047273 22.869333 8.254061 46.421333 14.491152 70.314666 18.618182 8.409212 1.520485 16.880485 2.792727 25.289697 4.468363 14.336 2.389333 28.858182 3.289212 43.380364 2.606546h11.481212a8.254061 8.254061 0 0 0 7.509333-3.506424l14.925576-18.680243c5.026909-6.299152 12.381091-6.578424 19.238788-7.478303a817.958788 817.958788 0 0 0 68.018424-12.567272c7.19903-1.551515 14.211879-4.747636 21.845334-4.096 0 2.606545-2.172121 4.096-3.630546 5.802666a257.985939 257.985939 0 0 1-60.291879 52.627394z" fill="#FE6C0F" p-id="5347"></path><path d="M656.430545 936.711758c18.618182-4.344242 36.926061-9.929697 54.799516-16.694303 17.159758-6.17503 33.978182-13.156848 50.579394-20.728243a6.17503 6.17503 0 0 1 3.940848-0.744727 70.004364 70.004364 0 0 1-15.825455 21.441939l-1.551515 1.241212-1.241212 1.303273c-5.492364 0.403394-9.619394 4.282182-14.522182 6.268121-12.970667 4.964848-26.468848 8.378182-40.184242 10.24a252.400485 252.400485 0 0 1-48.034909 2.110061l12.039757-4.437333z" fill="#D71358" p-id="5348"></path><path d="M917.705697 737.900606l-3.351273 5.12c-4.530424-1.861818-6.888727-6.826667-11.605333-8.192l14.956606-23.831273c3.413333 7.633455 2.265212 15.453091 0.620606 23.210667a15.608242 15.608242 0 0 0-0.620606 3.692606z" fill="#FE3C24" p-id="5349"></path><path d="M765.657212 900.499394c0-2.265212 1.489455-3.04097 3.10303-3.134061l-3.10303 3.134061z" fill="#D71358" p-id="5350"></path><path d="M754.672485 928.023273l9.929697-8.036849-9.929697 8.067879z m-7.416243 7.540363l7.912728-8.067878c-0.248242 5.740606-2.296242 8.316121-7.912728 8.067878z" fill="#FE3C24" p-id="5351"></path><path d="M833.489455 195.801212a6.764606 6.764606 0 0 1 5.864727 5.988849 7.074909 7.074909 0 0 1-5.895758-5.988849z m5.864727 5.926788c2.482424 0.093091 4.499394 2.172121 4.530424 4.809697a5.08897 5.08897 0 0 1-4.530424-4.809697z m22.900363 27.337697c3.04097 0 3.10303 1.799758 3.103031 3.599515-1.799758-0.620606-3.009939-1.985939-3.103031-3.599515z m-11.32606-14.242909c2.978909 0 3.10303 1.768727 3.10303 3.599515-1.799758-0.589576-3.009939-1.985939-3.10303-3.599515z m-5.833697-7.13697c2.110061 0.620606 3.320242 1.861818 2.978909 3.165091-2.110061-0.558545-3.320242-1.861818-2.978909-3.134061z m-1.210182-1.148121l3.10303 3.134061-3.10303-3.134061z" fill="#FDE301" p-id="5352"></path><path d="M707.599515 399.732364l8.378182 13.653333c0 0.713697 0.248242 1.458424 1.117091 1.582545h-0.217212c0 1.024 0.217212 2.048 1.365333 2.420364 9.309091 19.145697 16.228848 39.408485 20.604121 60.353939a23.272727 23.272727 0 0 1 0.248243 2.358303c-6.454303 1.551515-12.908606 3.413333-19.456 4.623516-2.854788 0.527515-3.971879 1.861818-3.103031 4.096 0.744727 3.847758 1.117091 7.788606 1.086061 11.729454a221.618424 221.618424 0 0 1 0 47.786667 4.158061 4.158061 0 0 1-1.365333 3.13406 3.878788 3.878788 0 0 1-3.165091 0.99297c-9.650424-0.341333-19.238788 0.899879-29.044364 0.434424a378.383515 378.383515 0 0 1-61.44-7.354181 336.058182 336.058182 0 0 1-103.703273-41.580606 314.864485 314.864485 0 0 1-50.517333-37.577697c-14.273939-13.125818-27.772121-27.151515-40.339394-42.046061-2.048-2.451394-2.203152-4.468364 1.086061-6.609455 6.950788-4.561455 14.149818-8.657455 21.348848-12.722424 5.678545-3.165091 5.864727-6.17503 0.527515-9.929697a7.540364 7.540364 0 0 1-4.251151-7.602424l8.16097-4.592485c6.826667-2.792727 13.436121-6.330182 20.231757-9.216 6.640485-2.296242 12.691394-6.11297 17.718303-11.108848a61.129697 61.129697 0 0 0 19.300849-31.340606c2.110061 23.086545-7.13697 40.711758-24.824243 53.868606-4.189091 3.10303-3.630545 5.12-0.806788 8.192a282.375758 282.375758 0 0 0 159.402667 90.049939 309.682424 309.682424 0 0 0 64.54303 4.096c3.971879 0 4.809697-2.482424 4.437334-5.864727a160.830061 160.830061 0 0 0-5.709576-27.679031 168.184242 168.184242 0 0 0-22.869333-51.975757 64.232727 64.232727 0 0 0-13.808485-13.218909 55.420121 55.420121 0 0 1-4.344243-3.847758c-0.837818-0.806788-1.644606-1.799758-1.210182-3.10303 0.434424-1.303273 1.737697-1.458424 2.854788-1.303273 5.244121 0.620606 10.24-1.272242 15.422061-1.303273 7.478303 5.895758 14.646303 12.288 21.410909 19.114667l0.99297 1.613576-0.062061-0.124121z" fill="#045BE0" p-id="5353"></path><path d="M359.222303 456.921212c-3.475394-3.475394-7.912727-2.451394-12.101818-2.916848-5.926788-0.310303-11.853576-0.310303-17.780364 0l-19.549091 2.544484a167.873939 167.873939 0 0 1-3.196121-31.030303c-0.899879-35.095273-0.651636-70.190545 5.523394-104.975515 5.430303-31.030303 13.777455-61.44 24.886303-90.825697 3.04097-8.16097 7.912727-15.32897 8.502303-24.544969l7.074909-6.640485c0.899879 0.930909 0.713697 4.096 3.289212 0.992969 5.057939-5.895758 11.139879-10.860606 17.904485-14.522181 2.07903-1.241212 4.313212-4.840727 7.043879-0.589576 0 0 1.799758-0.372364 2.575515-0.806788 8.192-4.592485 16.694303-8.564364 25.444849-11.915636 14.739394-2.327273 29.447758-5.399273 44.466424-3.413334a25.755152 25.755152 0 0 1 11.884606 4.344243c-3.971879 1.799758-7.540364 3.258182-10.984727 5.057939-1.241212 0.620606-5.12 0-2.234182 3.785697 0.713697 0.930909-1.613576 1.768727-2.606546 2.544485a128.806788 128.806788 0 0 0-19.797333 17.656242c-10.674424 10.24-19.642182 22.186667-26.59297 35.374546-4.158061 6.671515-7.230061 13.963636-9.091878 21.628121a31.557818 31.557818 0 0 0-1.458425 3.10303 209.485576 209.485576 0 0 0-11.232969 79.437576c0.341333 12.008727 2.699636 23.893333 6.919757 35.064243 5.182061 12.31903 10.984727 24.327758 17.43903 35.964121-0.310303 2.451394 4.592485 5.957818-1.396363 7.323151 0.093091 0.930909 0.217212 1.799758 0.403394 2.699637 0.403394 2.07903 0.868848 4.096 1.148121 6.299151 1.489455 11.481212 0.527515 23.179636-2.792727 34.257455-3.537455 3.847758-5.026909-3.258182-8.471273-1.458425 1.427394 4.06497 5.895758 7.509333 4.158061 13.560243-9.24703-10.612364-21.193697-15.049697-33.792-21.193697l2.234181 5.337212-1.148121 0.961939-6.671515-3.10303z m35.281455 5.678546l1.303272-1.179152-1.303272-1.210182-1.179152 1.861818 1.179152 0.527516z" fill="#FD9101" p-id="5354"></path><path d="M405.519515 412.392727a373.015273 373.015273 0 0 1-17.43903-35.933091 108.947394 108.947394 0 0 1-6.950788-35.064242c-1.396364-26.996364 2.451394-53.992727 11.264-79.437576 0.434424-1.086061 0.930909-2.110061 1.458424-3.10303 2.854788 8.129939 6.764606 15.825455 11.605334 22.900364 8.502303 11.170909 19.021576 18.369939 33.264484 18.46303 3.134061 0.03103 6.268121 0.620606 9.247031 1.613576-0.248242 8.471273 0.217212 16.973576 1.396363 25.351757 1.396364 18.587152 3.661576 37.081212 5.554425 55.575273l-8.16097 4.592485c-14.739394 6.733576-29.478788 13.249939-41.270303 25.041454z" fill="#FE6C0F" p-id="5355"></path><path d="M454.919758 382.758788c-1.892848-18.494061-4.158061-36.83297-5.554425-55.575273a150.217697 150.217697 0 0 1-1.396363-25.351757c12.722424 0.899879 25.444848 2.482424 37.981091 4.840727 0.062061 8.812606 0.868848 17.625212 2.451394 26.282667 0.496485 9.929697 2.01697 19.828364 4.468363 29.478787a47.290182 47.290182 0 0 1-17.687273 11.108849c-6.826667 2.885818-13.405091 6.423273-20.262787 9.216z" fill="#FD9101" p-id="5356"></path><path d="M438.846061 300.218182c-14.242909 0-24.793212-7.292121-33.264485-18.46303a98.27297 98.27297 0 0 1-11.605334-22.931394c1.861818-7.664485 4.933818-14.956606 9.060849-21.597091 6.981818-13.218909 15.949576-25.165576 26.59297-35.405576 1.210182 3.320242 2.203152 6.671515 3.072 10.115879a15.515152 15.515152 0 0 1-2.978909 14.36703 21.938424 21.938424 0 0 0-5.08897 20.48c3.04097 16.384 7.385212 32.519758 13.032727 48.190061 0.558545 1.706667 0.930909 3.444364 1.179152 5.244121z" fill="#045BE0" p-id="5357"></path><path d="M492.869818 362.433939a148.790303 148.790303 0 0 1-4.468363-29.478787 153.56897 153.56897 0 0 1-2.482425-26.282667c5.895758 0.589576 11.698424 1.954909 17.252849 4.096 8.502303 3.227152 9.743515 5.275152 9.27806 14.39806 0 2.01697-0.186182 4.096-0.279272 5.957819a61.129697 61.129697 0 0 1-19.300849 31.309575z" fill="#FEB202" p-id="5358"></path><path d="M709.616485 401.128727l-2.978909-3.13406c2.389333 0.372364 3.537455 1.396364 2.978909 3.13406z" fill="#FD9101" p-id="5359"></path><path d="M166.989576 141.994667l-2.730667 1.737697v-2.265212l2.482424 0.930909z" fill="#FEFEFE" p-id="5360"></path><path d="M269.575758 481.24897c-16.35297 20.014545-22.217697 43.969939-24.420849 69.880242-3.537455-1.551515-3.537455-4.685576-4.158061-7.012848a549.763879 549.763879 0 0 1-18.866424-127.534546c-0.248242-8.16097-1.148121-16.35297-0.930909-24.762182 0.868848-47.693576 7.540364-95.045818 19.859394-141.001697 4.344242-15.763394 9.091879-31.402667 14.956606-46.638545a19.704242 19.704242 0 0 0 0.682667-4.623515c12.31903-1.830788 24.54497 0.868848 36.83297 0.837818l5.740606 1.427394c-0.372364 1.737697-0.868848 3.413333-1.427394 5.12a514.575515 514.575515 0 0 0-32.954182 253.393454c1.179152 6.888727 0.279273 14.584242 4.654545 20.914425z" fill="#FE5618" p-id="5361"></path><path d="M269.575758 481.24897c-4.406303-6.361212-3.506424-14.025697-4.499394-21.038546a481.155879 481.155879 0 0 1-3.568485-77.420606 514.575515 514.575515 0 0 1 36.522666-176.003879c0.589576-1.644606 1.05503-3.351273 1.458425-5.088969 11.698424 1.706667 23.179636 4.592485 34.350545 8.626424 3.506424 1.303273 6.050909 1.303273 8.316121-2.048a19.021576 19.021576 0 0 1 3.351273-3.072c-0.372364 8.998788-5.461333 16.384-8.502303 24.576a501.387636 501.387636 0 0 0-24.979394 90.639515c-6.17503 34.78497-6.392242 69.880242-5.492364 104.975515 0.093091 10.426182 1.179152 20.821333 3.196122 31.030303-5.616485 2.327273-11.29503 4.468364-16.787394 7.043879-8.688485 4.561455-16.570182 10.550303-23.365818 17.780364z" fill="#FE6C0F" p-id="5362"></path><path d="M902.749091 734.487273c4.716606 1.551515 7.074909 6.516364 11.605333 8.192-4.654545 11.543273-11.822545 21.814303-21.007515 29.975272-12.846545 12.101818-27.275636 22.248727-42.883879 30.161455a7.726545 7.726545 0 0 1-3.940848 0.899879 706.032485 706.032485 0 0 0 56.226909-69.197576z" fill="#F92432" p-id="5363"></path><path d="M587.543273 596.526545c3.382303 4.033939 6.050909 8.595394 7.912727 13.560243 3.134061 12.25697-5.554424 23.676121-17.314909 20.48-17.780364-4.809697-31.930182 2.513455-46.235152 10.984727l-20.51103 11.015758c-1.706667-3.320242-4.964848-3.196121-7.943757-3.847758-21.100606-4.592485-41.828848-9.371152-53.961697-30.937212-6.516364-11.512242-15.32897-21.566061-19.797334-34.319515 12.194909 0.310303 24.389818-1.489455 36.057212-5.213091a285.168485 285.168485 0 0 1 45.707637-11.977697 88.591515 88.591515 0 0 1 76.086303 30.254545z" fill="#FEB202" p-id="5364"></path><path d="M429.568 583.555879c4.592485 12.722424 13.436121 22.807273 19.797333 34.288485 12.101818 21.566061 32.892121 26.375758 53.992728 30.937212 2.885818 0.682667 6.11297 0.558545 7.912727 3.847757-3.165091 2.389333-6.578424 4.375273-10.17794 5.957819-5.678545-4.499394-12.691394-3.661576-19.114666-4.809697-15.515152-2.792727-31.185455-5.182061-46.793697-7.13697-13.777455-1.737697-27.430788-4.840727-41.363394-4.933818 0-2.172121-1.830788-2.172121-3.10303-2.854788-7.912727-4.096-16.384-6.330182-23.086546-12.784485-9.743515-9.371152-13.529212-22.248727-19.393939-33.885091a10.426182 10.426182 0 0 1-0.248243-6.950788c2.265212-9.371152 5.399273-18.494061 9.402182-27.213576a13.125818 13.125818 0 0 0 1.148121-10.643394 14.677333 14.677333 0 0 1-1.396363-6.888727c9.898667 7.105939 16.321939 18.618182 28.082424 23.427879 2.792727 1.334303 5.585455 2.854788 8.192 4.530424-1.241212 0.775758-4.158061 0.930909-0.713697 2.916849 11.357091 6.609455 23.893333 10.767515 36.864 12.194909z" fill="#FD9101" p-id="5365"></path><path d="M393.852121 641.706667c13.963636 0 27.741091 3.196121 41.363394 4.933818 15.608242 1.954909 31.278545 4.344242 46.793697 7.13697 6.423273 1.148121 13.436121 0.310303 19.114667 4.809697a115.494788 115.494788 0 0 1-54.365091 14.956606c-0.248242-2.265212-1.954909-1.923879-3.444364-2.110061-6.609455-0.868848-13.187879-1.613576-19.828363-2.668606-15.825455-2.606545-31.681939-5.244121-47.538425-8.192-2.854788-0.527515-6.640485 0.589576-8.378181-3.351273 7.943758 0.775758 15.856485 1.644606 23.800242 2.265212a5.802667 5.802667 0 0 0 5.926788-1.551515c-6.423273-1.551515-12.412121-2.885818-18.307879-4.654545-0.868848-0.310303-6.919758 0.496485-2.327273-4.127031 2.048-2.07903-0.310303-2.451394-1.675636-2.947878l-15.546182-5.647516c-0.217212-6.702545 3.723636-5.182061 7.726546-4.344242 8.781576 1.954909 17.749333 3.661576 26.68606 5.492364z m9.433212 18.245818a6.11297 6.11297 0 0 0-1.737697-1.365333c-0.930909 0-1.613576 0.775758-1.241212 2.172121 0.341333 1.365333 0.99297 0.930909 1.520485 0.837818 0.496485-0.062061 0.806788-0.930909 1.458424-1.644606z" fill="#ED7922" p-id="5366"></path><path d="M367.507394 657.221818c1.706667 4.096 5.523394 2.823758 8.378182 3.351273 15.825455 2.947879 31.681939 5.585455 47.538424 8.192 6.578424 1.05503 13.156848 1.799758 19.797333 2.668606 1.520485 0.186182 3.227152 0 3.444364 2.110061-9.619394 1.706667-19.393939 1.954909-29.075394 0.713697a208.802909 208.802909 0 0 1-50.951758-10.24 12.629333 12.629333 0 0 0-2.792727-0.310303 60.043636 60.043636 0 0 0-11.481212-5.368243c0.217212-1.675636 1.024-2.668606 2.668606-2.01697 4.096 0.899879 8.285091 1.179152 12.474182 0.930909z" fill="#FE3C24" p-id="5367"></path><path d="M587.543273 596.526545a88.591515 88.591515 0 0 0-76.210425-30.161454c-0.310303-4.096-3.599515-4.902788-6.20606-6.206061-10.550303-5.678545-20.759273-11.915636-30.626909-18.711272a451.708121 451.708121 0 0 1-62.898424-51.913697 19.766303 19.766303 0 0 1-4.437334-6.826667c-0.744727-1.706667 0-3.413333 1.520485-2.358303 3.413333 2.358303 3.475394-0.341333 4.406303-2.358303a4.809697 4.809697 0 0 0 0.558546-3.847758 4.623515 4.623515 0 0 0-2.482425-2.978909c-3.196121-2.203152-7.416242-3.568485-8.440242-8.192 3.351273-11.046788 4.313212-22.745212 2.792727-34.257454-0.248242-2.110061-0.713697-4.096-1.117091-6.299152a23.458909 23.458909 0 0 1-0.403394-2.699636c5.988848-1.334303 1.086061-4.871758 1.396364-7.323152 11.884606-11.791515 26.499879-18.432 41.270303-25.041454a7.540364 7.540364 0 0 0 4.220121 7.602424c5.337212 3.785697 5.15103 6.764606-0.527515 9.929697-7.19903 4.12703-14.36703 8.192-21.348848 12.722424-3.289212 2.172121-3.134061 4.06497-1.086061 6.609455 12.567273 14.894545 26.065455 28.920242 40.339394 42.04606 15.608242 14.242909 32.519758 26.841212 50.517333 37.608728a336.058182 336.058182 0 0 0 103.827394 41.673697c20.169697 4.158061 40.587636 6.702545 61.129697 7.571394 9.805576 0.434424 19.393939-0.775758 29.044364-0.465455a3.878788 3.878788 0 0 0 3.165091-0.961939 4.158061 4.158061 0 0 0 1.365333-3.103031 221.618424 221.618424 0 0 0 0-47.817697c0-3.940848-0.372364-7.881697-1.117091-11.760485-0.744727-2.420364 0.279273-3.754667 3.10303-4.096 6.578424-1.241212 13.032727-3.072 19.487031-4.623515 5.678545 28.237576 5.895758 57.406061 0.682666 85.736728-7.385212-0.837818-14.242909 2.916848-21.597091 2.482424-2.544485 0-3.630545 2.172121-4.220121 4.778666-2.451394 10.550303-4.654545 21.162667-7.912727 31.526788-1.117091 3.630545-2.389333 5.15103-6.206061 5.182061a375.156364 375.156364 0 0 1-98.241939-11.636364 39.067152 39.067152 0 0 0-13.746424-1.830788z" fill="#154AC6" p-id="5368"></path><path d="M719.763394 417.978182c-2.389333-0.496485-2.637576-1.861818-2.885818-3.165091 2.792727 0.310303 3.475394 1.489455 2.885818 3.134061z" fill="#FDE301" p-id="5369"></path><path d="M719.111758 416.519758c-2.451394 0-2.792727-1.675636-3.103031-3.134061l3.103031 3.134061z" fill="#FDE301" p-id="5370"></path><path d="M402.850909 462.972121c1.024 4.654545 5.244121 6.019879 8.440243 8.192a4.623515 4.623515 0 0 1 2.482424 2.978909 4.809697 4.809697 0 0 1-0.589576 3.847758c-0.899879 2.01697-0.99297 4.716606-4.375273 2.358303-1.489455-1.024-2.265212 0.620606-1.520485 2.358303 0.99297 2.575515 2.513455 4.902788 4.437334 6.826667a451.739152 451.739152 0 0 0 62.774303 51.913697c9.836606 6.764606 20.014545 13.001697 30.502788 18.649212 2.606545 1.303273 5.895758 2.296242 6.20606 6.20606-15.484121 2.730667-30.72 6.733576-45.614545 11.977697-11.636364 3.723636-23.831273 5.523394-36.026182 5.244121a93.308121 93.308121 0 0 1-36.83297-12.288c-3.413333-2.01697-0.527515-2.141091 0.713697-2.916848a74.534788 74.534788 0 0 0-8.192-4.530424c-11.884606-4.778667-18.183758-16.384-28.082424-23.427879l-1.241212-1.334303a166.632727 166.632727 0 0 1-13.777455-17.997576 53.744485 53.744485 0 0 1 0.279273-49.089939 29.66497 29.66497 0 0 1 16.787394-15.204849l6.609455 3.289212 1.365333 0.465455v-1.427394l-2.234182-5.337212c12.598303 6.144 24.513939 10.550303 33.82303 21.193697 1.737697-6.050909-2.761697-9.402182-4.189091-13.560243 3.258182-1.768727 4.623515 5.461333 8.254061 1.613576z" fill="#2E309F" p-id="5371"></path><path d="M342.155636 521.309091c4.189091 6.299152 8.781576 12.31903 13.777455 17.966545l1.241212 1.334303a14.677333 14.677333 0 0 0 1.427394 6.888728 13.125818 13.125818 0 0 1-1.148121 10.643394c-4.033939 8.719515-7.168 17.842424-9.433212 27.213575a10.426182 10.426182 0 0 0 0.279272 6.950788c5.864727 11.636364 9.619394 24.576 19.362909 33.885091 6.702545 6.423273 15.39103 8.564364 23.117576 12.784485 1.241212 0.682667 3.10303 0.682667 3.103031 2.854788-8.998788-1.861818-17.935515-3.568485-26.841213-5.523394-3.971879-0.868848-7.943758-2.358303-7.757575 4.344242a86.357333 86.357333 0 0 1-41.053091-16.818424 15.980606 15.980606 0 0 1-5.895758-16.632242c4.344242-28.920242 14.025697-56.692364 28.516849-81.85794a20.262788 20.262788 0 0 0 1.303272-4.033939z" fill="#FE6C0F" p-id="5372"></path><path d="M394.503758 462.413576h-1.179152l1.179152-1.861818 1.303272 1.210181z" fill="#2E309F" p-id="5373"></path><path d="M403.347394 660.014545c-0.651636 0.744727-1.024 1.644606-1.489455 1.706667-0.496485 0.062061-1.427394-0.341333-1.551515-0.899879-0.155152-0.527515 0.310303-2.234182 1.241212-2.234181 0.651636 0.310303 1.241212 0.806788 1.799758 1.427393z" fill="#FE5618" p-id="5374"></path><path d="M359.377455 542.409697l-3.413334-3.134061 3.413334 3.134061z m27.616969-83.192242v3.16509l-3.816727-0.992969 3.785697-2.172121z" fill="#FD9101" p-id="5375"></path></svg>