<svg t="1640345273014" class="icon" viewBox="0 0 1024 1024" version="1.1" xmlns="http://www.w3.org/2000/svg" p-id="647" width="256" height="256"><path d="M1011.756522 505.878261a505.856 505.856 0 1 1-1011.712-0.022261 505.856 505.856 0 0 1 1011.712 0.022261z" fill="#F0F0F0" p-id="648"></path><path d="M972.109913 505.878261a466.231652 466.231652 0 1 1-932.485565 0 466.231652 466.231652 0 0 1 932.485565 0z" fill="#107DDD" p-id="649"></path><path d="M499.088696 70.745043a6.789565 6.789565 0 1 1 13.601391 0v78.425044a6.789565 6.789565 0 0 1-13.601391 0V70.745043zM460.04313 66.782609a6.789565 6.789565 0 0 1 7.457392 6.054956l3.428174 32.790261a6.789565 6.789565 0 0 1-6.054957 7.457391 6.789565 6.789565 0 0 1-7.479652-6.054956l-3.405913-32.790261A6.745043 6.745043 0 0 1 460.04313 66.782609z m90.624 0.022261a6.789565 6.789565 0 0 0-6.099478 6.054956l-3.450435 32.790261a6.811826 6.811826 0 1 0 13.534609 1.424696l3.450435-32.790261a6.811826 6.811826 0 0 0-7.435131-7.479652z m-136.303304 6.722782a6.767304 6.767304 0 0 1 8.058435 5.253565l16.228174 76.710957a6.789565 6.789565 0 1 1-13.289739 2.804869l-16.250435-76.710956a6.789565 6.789565 0 0 1 5.253565-8.058435z m181.982609-0.066782a6.789565 6.789565 0 0 0-6.700522 5.38713l-16.294956 76.688696a6.789565 6.789565 0 1 0 13.312 2.82713l16.294956-76.688696a6.811826 6.811826 0 0 0-6.611478-8.21426z m-226.882783 12.532869a6.745043 6.745043 0 0 1 8.548174 4.363131l10.195478 31.365565a6.789565 6.789565 0 1 1-12.933565 4.207304L365.078261 94.564174a6.789565 6.789565 0 0 1 4.385391-8.570435z m270.224696-0.289391a6.767304 6.767304 0 0 0-5.87687 4.674782l-10.195478 31.365566a6.789565 6.789565 0 1 0 12.933565 4.207304l10.195478-31.365565a6.789565 6.789565 0 0 0-7.056695-8.882087z m-313.299478 16.339478a6.722783 6.722783 0 0 1 8.97113 3.450435l31.855304 71.657739a6.811826 6.811826 0 0 1-12.421565 5.520696l-31.855304-71.657739a6.789565 6.789565 0 0 1 3.450435-8.971131z m356.908521-0.333913a6.767304 6.767304 0 0 0-6.344348 4.029217l-31.944347 71.590957a6.811826 6.811826 0 1 0 12.421565 5.542956l31.944348-71.590956a6.789565 6.789565 0 0 0-6.077218-9.572174z m-398.157913 21.815652a6.811826 6.811826 0 0 1 9.282783 2.493218l16.495304 28.560695a6.767304 6.767304 0 0 1-2.493217 9.282783 6.789565 6.789565 0 0 1-9.282783-2.470957l-16.495304-28.582956a6.789565 6.789565 0 0 1 2.493217-9.282783z m437.626435-0.890435a6.722783 6.722783 0 0 0-5.409391 3.383653l-16.495305 28.560695a6.767304 6.767304 0 0 0 2.493218 9.282783 6.789565 6.789565 0 0 0 9.282782-2.470957l16.473044-28.582956a6.789565 6.789565 0 0 0-6.344348-10.173218z m-476.382609 25.533218a6.90087 6.90087 0 0 1 3.762087-1.291131 6.722783 6.722783 0 0 1 5.743305 2.80487l46.035478 63.465739c2.226087 3.049739 1.536 7.279304-1.513739 9.483131a6.767304 6.767304 0 0 1-9.483131-1.51374l-46.035478-63.465739a6.767304 6.767304 0 0 1 1.491478-9.48313z m515.717566-0.957218a6.745043 6.745043 0 0 0-5.743305 2.80487l-46.124522 63.398957a6.811826 6.811826 0 0 0 10.99687 7.991652l46.124522-63.398957a6.745043 6.745043 0 0 0-1.491478-9.48313 6.633739 6.633739 0 0 0-3.762087-1.313392zM210.521043 177.730783a6.745043 6.745043 0 0 1 9.594435 0.512l22.060522 24.509217a6.767304 6.767304 0 0 1-0.489739 9.594435 6.789565 6.789565 0 0 1-9.616696-0.489739l-22.060522-24.509218a6.811826 6.811826 0 0 1 0.512-9.616695z m585.883827-1.691826a6.834087 6.834087 0 0 0-4.697044 2.248347l-22.082783 24.509218a6.767304 6.767304 0 0 0 0.512 9.594435 6.745043 6.745043 0 0 0 9.594435-0.48974l22.082783-24.509217a6.767304 6.767304 0 0 0-0.512-9.594435 6.745043 6.745043 0 0 0-4.897391-1.758608zM177.441391 210.209391a6.90087 6.90087 0 0 1 4.697044-2.248348v0.022261a6.633739 6.633739 0 0 1 4.897391 1.736348l58.278957 52.446609a6.789565 6.789565 0 1 1-9.104696 10.106435L177.953391 219.826087a6.811826 6.811826 0 0 1-0.512-9.616696z m652.399305-2.003478a6.633739 6.633739 0 0 0-4.897392 1.736348l-58.301217 52.424348a6.811826 6.811826 0 0 0 9.082435 10.106434l58.301217-52.424347a6.767304 6.767304 0 0 0-4.185043-11.842783zM148.72487 246.361043a6.811826 6.811826 0 0 1 5.721043-2.804869 6.989913 6.989913 0 0 1 3.762087 1.313391l26.690783 19.389218a6.745043 6.745043 0 0 1 1.491478 9.48313 6.767304 6.767304 0 0 1-9.483131 1.513739l-26.690782-19.389217a6.767304 6.767304 0 0 1-1.491478-9.505392z m708.786087-2.537739a6.789565 6.789565 0 0 0-3.762087 1.291131l-26.690783 19.366956a6.789565 6.789565 0 1 0 7.969391 10.99687l26.690783-19.366957a6.745043 6.745043 0 0 0 1.513739-9.48313 6.678261 6.678261 0 0 0-5.721043-2.80487zM123.169391 284.91687a6.745043 6.745043 0 0 1 9.282783-2.470957L200.347826 321.647304a6.789565 6.789565 0 1 1-6.789565 11.776l-67.895652-39.223652a6.767304 6.767304 0 0 1-2.493218-9.282782z m760.008348-3.383653a6.789565 6.789565 0 0 0-3.873391 0.912696l-67.895652 39.201391a6.789565 6.789565 0 1 0 6.789565 11.776l67.917913-39.223652a6.789565 6.789565 0 0 0-2.938435-12.666435zM102.689391 326.032696a6.722783 6.722783 0 0 1 8.971131-3.428174l30.118956 13.423304a6.811826 6.811826 0 0 1-5.542956 12.421565l-30.118957-13.445565a6.767304 6.767304 0 0 1-3.428174-8.97113z m800.189218-3.739826c-0.890435 0-1.78087 0.200348-2.649044 0.578782l-30.118956 13.423305c-3.450435 1.536-4.986435 5.520696-3.450435 8.97113a6.767304 6.767304 0 0 0 8.97113 3.450435l30.141218-13.423305a6.811826 6.811826 0 0 0-2.893913-13.000347zM85.704348 368.973913a6.767304 6.767304 0 0 1 8.570435-4.36313l74.551652 24.308869a6.789565 6.789565 0 1 1-4.207305 12.911305L90.067478 377.544348a6.789565 6.789565 0 0 1-4.36313-8.570435z m834.582261-4.385391a6.989913 6.989913 0 0 0-2.693566 0.311652l-74.573913 24.242087a6.811826 6.811826 0 0 0 4.207305 12.933565l74.573913-24.242087a6.789565 6.789565 0 0 0-1.513739-13.245217zM74.039652 414.096696a6.789565 6.789565 0 0 1 6.700522-5.387131c0.445217 0 0.912696 0.044522 1.357913 0.155826l32.256 6.856348a6.767304 6.767304 0 1 1-2.82713 13.289739l-32.256-6.856348a6.789565 6.789565 0 0 1-5.231305-8.058434z m857.021218-5.320348a9.97287 9.97287 0 0 0-1.380174 0.133565l-32.256 6.856348a6.767304 6.767304 0 0 0-5.231305 8.058435 6.767304 6.767304 0 0 0 8.058435 5.253565l32.256-6.856348a6.767304 6.767304 0 0 0 5.231304-8.058435 6.745043 6.745043 0 0 0-6.67826-5.38713zM66.404174 459.419826a6.834087 6.834087 0 0 1 7.479652-6.032696l77.979826 8.236522a6.767304 6.767304 0 0 1 6.032696 7.479652 6.745043 6.745043 0 0 1-7.457391 6.032696l-77.979827-8.236522a6.811826 6.811826 0 0 1-6.054956-7.479652z m872.937739-5.453913a4.786087 4.786087 0 0 0-1.380174 0l-78.002087 8.125217a6.811826 6.811826 0 0 0 1.424696 13.534609L939.364174 467.478261a6.789565 6.789565 0 0 0-0.022261-13.512348zM64.400696 505.878261c0-3.762087 3.027478-6.789565 6.789565-6.789565h32.968348c3.784348 0 6.811826 3.027478 6.811826 6.789565 0 3.784348-3.027478 6.811826-6.811826 6.811826H71.190261a6.789565 6.789565 0 0 1-6.789565-6.811826z m843.197217-6.789565a6.767304 6.767304 0 0 0-6.789565 6.789565c0 3.784348 3.027478 6.811826 6.789565 6.811826h32.990609a6.789565 6.789565 0 0 0 6.789565-6.811826 6.767304 6.767304 0 0 0-6.789565-6.789565h-32.990609zM150.394435 536.153043a6.767304 6.767304 0 0 1 7.457391 6.054957 6.767304 6.767304 0 0 1-6.054956 7.457391l-77.979827 8.147479a6.767304 6.767304 0 0 1-7.457391-6.054957 6.745043 6.745043 0 0 1 6.054957-7.457391l77.979826-8.147479z m709.565217 0.467479a6.811826 6.811826 0 0 0-0.044522 13.534608l77.957566 8.236522a6.767304 6.767304 0 0 0 7.479652-6.032695 6.767304 6.767304 0 0 0-6.032696-7.479653l-77.979826-8.236521a5.743304 5.743304 0 0 0-1.380174-0.022261zM111.526957 582.700522a6.767304 6.767304 0 0 1 8.058434 5.231304 6.789565 6.789565 0 0 1-5.231304 8.058435l-32.256 6.856348a6.767304 6.767304 0 1 1-2.82713-13.289739l32.256-6.856348z m787.344695-0.089044a6.789565 6.789565 0 0 0-1.469217 13.445565l32.278261 6.856348a6.789565 6.789565 0 1 0 2.804869-13.289739l-32.256-6.856348a5.654261 5.654261 0 0 0-1.357913-0.155826zM164.530087 609.702957a6.745043 6.745043 0 0 1 8.570435 4.36313 6.767304 6.767304 0 0 1-4.363131 8.570435l-74.551652 24.242087a6.811826 6.811826 0 0 1-4.207304-12.933566l74.551652-24.242086z m679.936-0.066783a6.789565 6.789565 0 0 0-1.513739 13.222956l74.551652 24.30887a6.811826 6.811826 0 0 0 4.207304-12.933565L847.159652 609.947826a6.589217 6.589217 0 0 0-2.693565-0.311652z m-708.34087 53.426087a6.722783 6.722783 0 0 1 8.971131 3.450435 6.767304 6.767304 0 0 1-3.428174 8.97113l-30.141217 13.423304a6.789565 6.789565 0 1 1-5.520696-12.421565l30.118956-13.423304z m736.768-0.333913a6.789565 6.789565 0 0 0-2.893913 13.022609l30.118957 13.423304a6.789565 6.789565 0 1 0 5.520696-12.421565l-30.118957-13.423305a6.834087 6.834087 0 0 0-2.626783-0.601043z m-679.334956 15.62713a6.811826 6.811826 0 0 1 6.789565 11.776l-67.895652 39.201392a6.789565 6.789565 0 1 1-6.789565-11.75374l67.895652-39.223652z m620.788869-0.890435a6.789565 6.789565 0 0 0-2.938434 12.666435l67.895652 39.201392a6.811826 6.811826 0 1 0 6.811826-11.75374l-67.917913-39.223652a6.834087 6.834087 0 0 0-3.851131-0.890435zM176.729043 736.300522a6.811826 6.811826 0 0 1 7.991653 10.996869l-26.690783 19.366957a6.789565 6.789565 0 1 1-7.991652-10.99687l26.690782-19.366956z m654.380522-1.068522a6.767304 6.767304 0 0 0-4.229565 12.288l26.690783 19.389217a6.789565 6.789565 0 1 0 7.991652-10.996869l-26.690783-19.389218a6.789565 6.789565 0 0 0-3.762087-1.29113z m-595.055304 4.073739a6.811826 6.811826 0 0 1 9.594435 0.512 6.767304 6.767304 0 0 1-0.512 9.594435L186.835478 801.836522a6.767304 6.767304 0 0 1-9.594435-0.512 6.767304 6.767304 0 0 1 0.48974-9.594435l58.323478-52.424348z m534.594782-1.536a6.811826 6.811826 0 0 0-4.185043 11.842783l58.256696 52.446608a6.811826 6.811826 0 0 0 9.104695-10.106434l-58.278956-52.446609a6.633739 6.633739 0 0 0-4.897392-1.736348z m-480.122434 52.580174a6.878609 6.878609 0 0 1 5.743304-2.80487 6.767304 6.767304 0 0 1 5.253565 10.818783l-46.124521 63.398957a6.811826 6.811826 0 1 1-10.99687-8.013913l46.124522-63.398957z m424.581565-2.515478a6.767304 6.767304 0 0 0-3.762087 1.313391 6.767304 6.767304 0 0 0-1.513739 9.483131l46.057739 63.465739a6.811826 6.811826 0 0 0 10.99687-7.991653l-46.035479-63.465739a6.834087 6.834087 0 0 0-5.743304-2.804869z m-483.083131 12.04313a6.878609 6.878609 0 0 1 4.697044-2.248348 6.811826 6.811826 0 0 1 5.409391 11.353044l-22.060521 24.509217a6.767304 6.767304 0 0 1-9.594435 0.489739 6.767304 6.767304 0 0 1-0.512-9.594434l22.060521-24.509218z m542.96487-2.203826a6.767304 6.767304 0 0 0-5.409391 11.330783l22.082782 24.509217a6.767304 6.767304 0 1 0 10.084174-9.082435l-22.060521-24.509217a6.745043 6.745043 0 0 0-4.697044-2.248348z m-420.641391 31.209739a6.767304 6.767304 0 0 1 8.97113-3.428174 6.767304 6.767304 0 0 1 3.450435 8.971131l-31.944348 71.613217a6.811826 6.811826 0 0 1-12.421565-5.542956l31.944348-71.613218z m296.314435-3.828869a6.767304 6.767304 0 0 0-6.099479 9.549913l31.833044 71.657739a6.811826 6.811826 0 0 0 12.443826-5.520696l-31.855305-71.657739a6.745043 6.745043 0 0 0-6.322086-4.029217z m-351.521392 25.332869a6.700522 6.700522 0 0 1 5.409392-3.383652 6.789565 6.789565 0 0 1 6.366608 10.173217l-16.495304 28.560696a6.789565 6.789565 0 1 1-11.776-6.789565l16.495304-28.560696z m408.086261-3.383652a6.767304 6.767304 0 0 0-6.366609 10.173217l16.495305 28.560696a6.789565 6.789565 0 1 0 11.753739-6.789565l-16.473044-28.560696a6.722783 6.722783 0 0 0-5.409391-3.383652z m-282.112 6.38887a6.767304 6.767304 0 0 1 6.678261-5.36487 6.789565 6.789565 0 0 1 6.611478 8.192l-16.294956 76.710957a6.789565 6.789565 0 1 1-13.289739-2.827131l16.294956-76.710956z m154.601739-5.320348a6.789565 6.789565 0 0 0-6.611478 8.192l16.250435 76.710956a6.789565 6.789565 0 1 0 13.289739-2.82713l-16.228174-76.688696a6.789565 6.789565 0 0 0-6.700522-5.38713z m-80.628869 14.536348a6.789565 6.789565 0 1 1 13.601391 0v78.402782a6.789565 6.789565 0 0 1-13.601391 0V862.608696z m-117.982609 18.521043a6.789565 6.789565 0 0 0-5.87687 4.674783l-10.195478 31.387826a6.767304 6.767304 0 0 0 4.363131 8.548174 6.767304 6.767304 0 0 0 8.570434-4.363131l10.195479-31.365565a6.811826 6.811826 0 0 0-7.056696-8.882087z m246.828522 0.333913a6.789565 6.789565 0 0 1 8.548174 4.363131l10.195478 31.365565a6.789565 6.789565 0 1 1-12.933565 4.207304l-10.195479-31.365565a6.789565 6.789565 0 0 1 4.385392-8.570435z m-164.708174 17.163131a6.789565 6.789565 0 0 0-6.099478 6.054956l-3.450435 32.790261a6.767304 6.767304 0 0 0 6.054956 7.479652 6.767304 6.767304 0 0 0 7.457392-6.054956l3.450434-32.790261a6.789565 6.789565 0 0 0-7.412869-7.479652z m83.678608 0.044521a6.789565 6.789565 0 0 1 7.457392 6.054957l3.428174 32.790261a6.811826 6.811826 0 1 1-13.512348 1.424695l-3.428174-32.812521a6.745043 6.745043 0 0 1 6.054956-7.457392z" fill="#F4F2F3" p-id="650"></path><path d="M824.475826 233.984l-371.890087 216.086261L217.444174 820.246261l343.997217-254.797913z" fill="#000000" opacity=".409" p-id="651"></path><path d="M559.170783 561.686261l-106.585044-111.616L830.73113 195.673043z" fill="#FF5150" p-id="652"></path><path d="M559.170783 561.686261l-106.607305-111.638261L181.025391 816.083478z" fill="#F1F1F1" p-id="653"></path><path d="M181.025391 816.083478l378.145392-254.397217L830.73113 195.673043z" fill="#000000" opacity=".243" p-id="654"></path></svg>