<svg t="1640346190677" class="icon" viewBox="0 0 1024 1024" version="1.1" xmlns="http://www.w3.org/2000/svg" p-id="8876" width="256" height="256"><path d="M804.522667 225.792c-56.263111-4.892444-105.870222-36.238222-158.208-70.542222L545.735111 500.963556c37.489778 25.372444 77.425778 48.696889 131.982222 61.041777 112.64 25.543111 218.225778-15.36 244.224-26.624L1024 184.433778c-8.192 4.039111-106.382222 51.2-219.477333 41.358222z" fill="#96CD27" p-id="8877"></path><path d="M1024 184.433778c-7.623111 3.754667-93.013333 44.088889-195.640889 42.040889a423.822222 423.822222 0 0 1 108.828445 256.341333L1024 184.433778z" fill="#83C315" p-id="8878"></path><path d="M646.314667 155.192889l-11.264 38.741333A341.105778 341.105778 0 0 1 853.333333 512c0 15.815111-1.479111 31.232-3.527111 46.421333a449.536 449.536 0 0 0 72.078222-23.096889l15.303112-52.508444a424.789333 424.789333 0 0 0-108.828445-256.398222c-7.964444-0.113778-15.758222 0-23.893333-0.682667-56.206222-4.892444-105.813333-36.181333-158.151111-70.542222z" fill="#8FC920" p-id="8879"></path><path d="M635.050667 193.934222l-23.893334 82.090667A256 256 0 0 1 768 512c0 20.081778-2.901333 39.367111-7.224889 58.140444a424.675556 424.675556 0 0 0 89.031111-11.662222C851.854222 543.232 853.333333 527.815111 853.333333 512a341.219556 341.219556 0 0 0-218.282666-318.065778z" fill="#96CD27" p-id="8880"></path><path d="M711.111111 512c0 18.830222-3.470222 36.693333-8.305778 53.987556 19.797333 2.844444 39.367111 4.437333 57.969778 4.096A253.724444 253.724444 0 0 0 768 512a256.056889 256.056889 0 0 0-156.785778-236.032l-16.213333 55.580444A198.712889 198.712889 0 0 1 711.111111 512z" fill="#A3D437" p-id="8881"></path><path d="M597.333333 512c0 6.485333-0.853333 12.686222-2.218666 18.716444 16.042667 8.533333 33.336889 16.156444 52.337777 22.414223 3.982222-13.084444 6.769778-26.737778 6.769778-41.130667a141.653333 141.653333 0 0 0-75.377778-124.814222l-16.384 56.32c21.048889 15.530667 34.872889 40.334222 34.872889 68.494222z" fill="#C2E460" p-id="8882"></path><path d="M595.114667 530.716444c1.365333-6.030222 2.218667-12.288 2.218666-18.716444 0-28.216889-13.824-52.963556-34.872889-68.494222l-16.725333 57.400889c15.644444 10.581333 32.028444 20.593778 49.379556 29.809777z" fill="#D2EB78" p-id="8883"></path><path d="M654.222222 512c0 14.392889-2.787556 28.046222-6.769778 41.130667 9.728 3.242667 19.512889 6.428444 30.264889 8.817777 8.419556 1.934222 16.725333 2.787556 25.088 4.039112 4.835556-17.294222 8.305778-35.157333 8.305778-53.987556 0-80.213333-47.729778-148.935111-116.110222-180.451556l-16.156445 55.637334A141.653333 141.653333 0 0 1 654.222222 512z" fill="#B1DC49" p-id="8884"></path><path d="M353.962667 403.285333c59.619556 12.288 102.172444 36.579556 141.368889 62.919111l100.010666-343.836444c-49.095111-30.321778-102.798222-57.173333-167.822222-64-104.049778-10.922667-212.195556 43.008-212.195556 43.008l-99.271111 341.333333c14.165333-7.566222 123.676444-62.919111 237.909334-39.424z" fill="#F9743F" p-id="8885"></path><path d="M512 85.333333c5.063111 0 10.012444 0.568889 15.075556 0.739556a329.955556 329.955556 0 0 0-99.555556-27.704889c-104.049778-10.922667-212.195556 42.951111-212.195556 42.951111l-45.624888 156.728889A425.699556 425.699556 0 0 1 512 85.333333z" fill="#F75320" p-id="8886"></path><path d="M184.775111 415.232a341.333333 341.333333 0 0 1 394.581333-237.852444l15.985778-55.068445a569.457778 569.457778 0 0 0-68.323555-36.238222C522.012444 85.902222 517.063111 85.333333 512 85.333333a425.528889 425.528889 0 0 0-342.300444 172.657778l-53.703112 184.661333c6.371556-3.413333 32.426667-16.270222 68.778667-27.420444z" fill="#F86531" p-id="8887"></path><path d="M512 256c14.791111 0 29.070222 1.934222 43.235556 4.380444l24.120888-83.000888a341.333333 341.333333 0 0 0-394.581333 237.852444A390.144 390.144 0 0 1 283.761778 398.222222C325.745778 314.254222 411.704889 256 512 256z" fill="#F9743F" p-id="8888"></path><path d="M346.055111 402.261333A198.883556 198.883556 0 0 1 512 312.888889c9.329778 0 18.204444 1.536 27.136 2.730667l16.099556-55.239112A257.820444 257.820444 0 0 0 512 256c-100.295111 0-186.197333 58.254222-228.181333 142.279111a298.097778 298.097778 0 0 1 62.236444 3.982222z" fill="#FA7F4A" p-id="8889"></path><path d="M346.055111 402.261333c2.673778 0.455111 5.233778 0.455111 7.907556 1.024 18.944 3.868444 35.669333 9.272889 51.598222 15.303111A141.198222 141.198222 0 0 1 512 369.777778c3.811556 0 7.338667 0.853333 11.093333 1.137778l16.042667-55.296C530.204444 314.424889 521.329778 312.888889 512 312.888889c-69.347556 0-130.275556 35.612444-165.944889 89.372444z" fill="#FB8E59" p-id="8890"></path><path d="M506.709333 427.178667l16.384-56.32c-3.697778-0.284444-7.281778-1.080889-11.036444-1.080889-42.609778 0-80.384 19.114667-106.496 48.753778 19.968 7.509333 38.115556 16.213333 54.897778 25.884444 13.027556-9.955556 28.842667-16.156444 46.250666-17.237333z" fill="#FB9866" p-id="8891"></path><path d="M506.709333 427.178667a84.309333 84.309333 0 0 0-46.250666 17.237333c12.060444 6.940444 23.722667 14.222222 34.929777 21.731556l11.320889-38.968889z" fill="#FCAD7B" p-id="8892"></path><path d="M337.123556 459.320889c-112.753778-23.210667-220.842667 30.435556-237.283556 39.082667L0 841.557333s116.110222-64.910222 237.511111-39.936c59.960889 12.344889 102.456889 36.920889 141.824 63.488l99.612445-342.528c-39.367111-26.510222-81.976889-50.915556-141.824-63.260444z" fill="#2DB6F7" p-id="8893"></path><path d="M0 841.557333S90.112 791.324444 194.56 796.444444a424.675556 424.675556 0 0 1-107.690667-253.610666L0 841.557333z" fill="#16A5F5" p-id="8894"></path><path d="M379.335111 865.109333l10.126222-34.816A341.048889 341.048889 0 0 1 170.723556 512c0-14.392889 1.137778-28.501333 2.901333-42.382222a421.319111 421.319111 0 0 0-73.784889 28.785778l-12.913778 44.430222A424.391111 424.391111 0 0 0 194.616889 796.444444c14.108444 0.682667 28.444444 2.218667 42.951111 5.176889 59.904 12.344889 102.456889 36.920889 141.767111 63.488z" fill="#1EABF5" p-id="8895"></path><path d="M256 512c0-19.911111 2.787556-39.082667 7.111111-57.685333a386.048 386.048 0 0 0-89.543111 15.246222A348.16 348.16 0 0 0 170.666667 512a341.276444 341.276444 0 0 0 218.737777 318.293333l23.893334-82.090666A256.113778 256.113778 0 0 1 256 512z" fill="#2DB6F7" p-id="8896"></path><path d="M312.888889 512c0-19.114667 3.527111-37.205333 8.590222-54.727111a303.843556 303.843556 0 0 0-58.368-2.958222A253.781333 253.781333 0 0 0 256 512a256.113778 256.113778 0 0 0 157.297778 236.202667l16.156444-55.466667A198.769778 198.769778 0 0 1 312.888889 512z" fill="#43C4F9" p-id="8897"></path><path d="M369.777778 512c0-14.677333 2.901333-28.615111 6.997333-41.927111a348.387556 348.387556 0 0 0-39.651555-10.808889c-5.290667-1.080889-10.410667-1.194667-15.644445-1.991111A195.868444 195.868444 0 0 0 312.888889 512c0 80.440889 47.900444 149.276444 116.565333 180.736l16.156445-55.694222A141.653333 141.653333 0 0 1 369.777778 512z" fill="#4ECAFA" p-id="8898"></path><path d="M426.666667 512c0-6.656 0.910222-13.027556 2.389333-19.285333a351.914667 351.914667 0 0 0-52.280889-22.641778A141.994667 141.994667 0 0 0 369.777778 512a141.653333 141.653333 0 0 0 75.832889 125.041778l16.384-56.206222A84.878222 84.878222 0 0 1 426.666667 512z" fill="#58D0FA" p-id="8899"></path><path d="M461.994667 580.835556l16.952889-58.311112a532.593778 532.593778 0 0 0-49.891556-29.809777A86.072889 86.072889 0 0 0 426.666667 512c0 28.330667 13.994667 53.304889 35.328 68.835556z" fill="#6CDAFB" p-id="8900"></path><path d="M660.878222 618.040889c-54.385778-12.288-94.151111-35.441778-131.527111-60.700445l-99.612444 342.528c36.579556 24.632889 75.662222 47.160889 128.796444 59.164445 128.739556 29.184 248.263111-29.184 248.263111-29.184l89.201778-305.436445 9.671111-33.28c-24.917333 10.922667-131.299556 52.679111-244.792889 26.908445z" fill="#FDC647" p-id="8901"></path><path d="M512 938.666667c-5.12 0-10.069333-0.568889-15.132444-0.739556 18.659556 8.419556 38.684444 15.872 61.667555 21.105778 128.739556 29.127111 248.263111-29.184 248.263111-29.184l48.128-164.750222A425.528889 425.528889 0 0 1 512 938.666667z" fill="#FDBB33" p-id="8902"></path><path d="M905.671111 591.075556a443.904 443.904 0 0 1-67.640889 22.186666 341.504 341.504 0 0 1-392.874666 233.415111l-15.473778 53.134223c20.764444 13.994667 42.666667 26.965333 67.128889 38.058666 5.063111 0.170667 10.069333 0.796444 15.189333 0.796445a425.585778 425.585778 0 0 0 342.869333-173.568l41.130667-140.743111 9.671111-33.28z" fill="#FDC13A" p-id="8903"></path><path d="M740.067556 626.062222C698.026667 709.916444 612.181333 768 512 768c-14.620444 0-28.728889-1.934222-42.666667-4.323556l-24.120889 83.000889a341.390222 341.390222 0 0 0 392.817778-233.358222 426.666667 426.666667 0 0 1-97.962666 12.743111z" fill="#FDC647" p-id="8904"></path><path d="M512 711.111111c-9.102222 0-17.806222-1.479111-26.624-2.673778l-16.042667 55.239111c13.937778 2.389333 28.046222 4.323556 42.666667 4.323556 100.181333 0 186.026667-58.083556 228.067556-141.937778a356.693333 356.693333 0 0 1-61.610667-5.233778A198.712889 198.712889 0 0 1 512 711.111111z" fill="#FDCA51" p-id="8905"></path><path d="M618.609778 605.184a141.255111 141.255111 0 0 1-106.666667 49.038222c-3.584 0-6.940444-0.796444-10.524444-1.080889l-16.042667 55.296c8.760889 1.137778 17.464889 2.673778 26.567111 2.673778a198.712889 198.712889 0 0 0 166.513778-90.282667c-5.916444-1.024-11.719111-1.479111-17.635556-2.844444a316.871111 316.871111 0 0 1-42.211555-12.8z" fill="#FDD15F" p-id="8906"></path><path d="M517.916444 596.764444l-16.440888 56.433778c3.584 0.227556 6.940444 1.024 10.524444 1.024 42.723556 0 80.611556-19.171556 106.666667-48.981333a362.609778 362.609778 0 0 1-54.442667-26.112 84.878222 84.878222 0 0 1-46.307556 17.635555z" fill="#FED66B" p-id="8907"></path><path d="M517.916444 596.764444c17.408-1.194667 33.28-7.566222 46.307556-17.635555-12.003556-6.997333-23.608889-14.222222-34.816-21.788445l-11.491556 39.424z" fill="#FEDD7C" p-id="8908"></path></svg>